<?xml version="1.0" standalone="no"?>
<!DOCTYPE svg PUBLIC "-//W3C//DTD SVG 1.1//EN" "http://www.w3.org/Graphics/SVG/1.1/DTD/svg11.dtd" >
<!--
2013-9-30: Created.
-->
<svg>
<metadata>
Created by iconfont
</metadata>
<defs>

<font id="iconfont" horiz-adv-x="1024" >
  <font-face
    font-family="iconfont"
    font-weight="500"
    font-stretch="normal"
    units-per-em="1024"
    ascent="896"
    descent="-128"
  />
    <missing-glyph />
    
    <glyph glyph-name="cards" unicode="&#58908;" d="M710.809367 748.384573 102.040972 748.384573c-41.445002 0-75.157727-33.716905-75.157727-75.157727l0-726.069119c0-41.440822 33.716905-75.157727 75.157727-75.157727l608.768395 0c41.440822 0 75.157727 33.716905 75.157727 75.157727L785.967094 673.226846C785.967094 714.667668 752.254368 748.384573 710.809367 748.384573zM924.496051 896 338.205593 896c-41.440822 0-75.157727-33.716905-75.157727-75.157727l0-10.695619 447.761501 0c75.500455 0 136.923987-61.423532 136.923987-136.923987L847.733354 45.299124l76.766877 0c41.440822 0 75.157727 33.716905 75.157727 75.157727L999.657958 820.842273C999.657958 862.287275 965.941053 896 924.496051 896z"  horiz-adv-x="1024" />

    
    <glyph glyph-name="wallet" unicode="&#59605;" d="M974 234H674c-82.8 0-150 67.2-150 150s67.2 150 150 150h300c27.6 0 50-22.4 50-50v-200c0-27.6-22.4-50-50-50zM684 459c-41.4 0-75-33.6-75-75s33.6-75 75-75 75 33.6 75 75-33.6 75-75 75z m-10-280c-27.7 0-54.5 5.4-79.8 16.1-24.4 10.3-46.3 25.1-65.1 43.9-18.8 18.8-33.6 40.7-43.9 65.1-10.8 25.4-16.2 52.2-16.2 79.9 0 27.7 5.4 54.5 16.1 79.8 10.3 24.4 25.1 46.3 43.9 65.1 18.8 18.8 40.7 33.6 65.1 43.9 25.3 10.7 52.2 16.1 79.8 16.1h246V704c0 44.2-35.8 80-80 80H80c-44.2 0-80-35.8-80-80v-640c0-44.2 35.8-80 80-80h760c44.2 0 80 35.8 80 80V179H674z"  horiz-adv-x="1024" />

    
    <glyph glyph-name="source" unicode="&#58988;" d="M1008.96 320c-34.432-109.184-242.624-193.472-496.96-193.472S49.472 210.816 15.04 320H0V459.072C95.616 376.576 288.768 320 512 320s416.384 56.576 512 139.072V320h-15.04zM512 382.528C257.664 382.528 49.472 466.816 15.04 576H0V704h4.352C35.776 812.224 250.816 896 512 896s476.16-83.776 507.648-192H1024v-128h-15.04C974.528 466.816 766.336 382.528 512 382.528zM512 64c223.232 0 416.384 56.576 512 139.072V64h-4.352c-31.424-108.224-246.464-192-507.648-192S35.84-44.224 4.352 64H0v139.072C95.616 120.576 288.768 64 512 64z"  horiz-adv-x="1024" />

    
    <glyph glyph-name="card" unicode="&#58907;" d="M938.666667 702.208H85.333333c-47.047111 0-85.333333-38.286222-85.333333-85.333333v-512c0-47.047111 38.286222-85.333333 85.333333-85.333334h853.333334c47.047111 0 85.333333 38.286222 85.333333 85.333334v512c0 47.075556-38.286222 85.333333-85.333333 85.333333z m-853.333334-56.888889h853.333334c15.701333 0 28.444444-12.771556 28.444444-28.444444V526.222222H56.888889V616.874667c0 15.701333 12.771556 28.444444 28.444444 28.444444z m853.333334-568.888889H85.333333c-15.672889 0-28.444444 12.743111-28.444444 28.444445V469.333333h910.222222v-364.458666c0-15.672889-12.743111-28.444444-28.444444-28.444445zM568.888889 352.597333a28.444444 28.444444 0 0 0-28.472889-28.444444h-369.777778a28.444444 28.444444 0 1 0 0 56.888889h369.777778a28.444444 28.444444 0 0 0 28.472889-28.444445zM369.777778 196.152889a28.444444 28.444444 0 0 0-28.444445-28.444445H170.666667a28.444444 28.444444 0 1 0 0 56.888889h170.666666a28.444444 28.444444 0 0 0 28.444445-28.444444z"  horiz-adv-x="1024" />

    
    <glyph glyph-name="manage" unicode="&#59084;" d="M512 192c-105.6 0-192 86.4-192 192s86.4 192 192 192 192-86.4 192-192-86.4-192-192-192z m0 320c-70.4 0-128-57.6-128-128s57.6-128 128-128 128 57.6 128 128-57.6 128-128 128zM587.2-64h-148.8c-46.4 0-84.8 38.4-84.8 84.8 0 8-4.8 16-12.8 19.2-12.8 6.4-25.6 14.4-38.4 22.4-8 4.8-16 4.8-22.4 1.6-41.6-24-92.8-9.6-116.8 32l-76.8 128c-11.2 19.2-14.4 43.2-8 65.6 6.4 22.4 20.8 40 40 51.2 6.4 4.8 11.2 12.8 11.2 20.8V384v22.4c0 8-3.2 16-11.2 20.8-41.6 24-54.4 75.2-32 116.8l75.2 129.6c24 41.6 75.2 54.4 116.8 32 6.4-3.2 16-3.2 22.4 1.6 12.8 8 25.6 16 38.4 22.4 8 3.2 12.8 11.2 12.8 19.2C352 793.6 390.4 832 436.8 832h148.8c48 0 86.4-38.4 86.4-84.8 0-8 4.8-16 12.8-19.2 12.8-6.4 25.6-14.4 38.4-22.4 8-4.8 16-4.8 24-1.6 19.2 11.2 43.2 14.4 64 8 22.4-6.4 40-20.8 51.2-40l75.2-129.6c24-41.6 9.6-92.8-32-116.8-6.4-4.8-11.2-12.8-11.2-20.8v-44.8c0-8 3.2-16 11.2-20.8 19.2-11.2 33.6-30.4 40-51.2s3.2-44.8-8-65.6L862.4 96c-24-40-75.2-54.4-116.8-32-6.4 4.8-16 3.2-24-1.6-12.8-8-25.6-16-38.4-22.4-8-3.2-12.8-11.2-12.8-19.2 1.6-46.4-36.8-84.8-83.2-84.8zM288 131.2c16 0 33.6-4.8 48-14.4 9.6-6.4 20.8-12.8 32-17.6 28.8-14.4 48-44.8 48-76.8 0-11.2 9.6-20.8 20.8-20.8h148.8c11.2 0 20.8 9.6 20.8 20.8 0 32 17.6 62.4 48 76.8 11.2 4.8 20.8 11.2 32 17.6 27.2 17.6 62.4 19.2 89.6 3.2 9.6-6.4 24-1.6 28.8 8l75.2 129.6c3.2 4.8 3.2 11.2 1.6 16-1.6 4.8-4.8 9.6-9.6 12.8-28.8 16-44.8 46.4-43.2 80V384v17.6c-1.6 33.6 14.4 64 43.2 80 9.6 6.4 14.4 19.2 8 28.8L808 640c-3.2 4.8-8 8-12.8 9.6-4.8 1.6-11.2 0-16-1.6-28.8-16-62.4-14.4-89.6 3.2-9.6 6.4-20.8 12.8-32 17.6-28.8 14.4-48 44.8-48 76.8-1.6 12.8-11.2 22.4-22.4 22.4h-148.8c-12.8 0-22.4-9.6-22.4-20.8 0-32-17.6-62.4-48-76.8-11.2-4.8-20.8-11.2-32-17.6-27.2-17.6-62.4-19.2-91.2-3.2-9.6 6.4-24 1.6-28.8-8L142.4 512c-6.4-9.6-1.6-24 8-28.8 28.8-16 44.8-46.4 43.2-80V368c1.6-33.6-14.4-64-43.2-80-4.8-3.2-8-8-9.6-12.8-1.6-4.8 0-11.2 1.6-16l75.2-129.6c6.4-9.6 19.2-14.4 28.8-8 12.8 6.4 27.2 9.6 41.6 9.6z"  horiz-adv-x="1024" />

    
    <glyph glyph-name="manager-o" unicode="&#58885;" d="M170.7008 182.5792v-196.8128h682.7008V182.5792l-183.5008 87.552H354.2016l-183.5008-87.552z m-24.576 51.4048L329.728 321.536c7.68 3.6864 15.9744 5.5296 24.4736 5.5296h315.5968c8.4992 0 16.896-1.8432 24.4736-5.5296l183.5008-87.552c19.7632-9.4208 32.3584-29.3888 32.3584-51.3024v-196.8128c0-31.4368-25.4976-56.9344-56.9344-56.9344H170.7008c-31.4368 0-56.9344 25.4976-56.9344 56.9344V182.5792c0 22.016 12.5952 41.984 32.3584 51.4048zM512 440.9344c94.208 0 170.7008 76.3904 170.7008 170.7008 0 94.208-76.3904 170.7008-170.7008 170.7008s-170.7008-76.3904-170.7008-170.7008S417.792 440.9344 512 440.9344z m0-56.9344c-125.6448 0-227.5328 101.888-227.5328 227.5328S386.3552 839.0656 512 839.0656 739.5328 737.28 739.5328 611.5328 637.6448 384 512 384z m85.2992-227.5328h113.7664c15.6672 0 28.4672-12.6976 28.4672-28.4672s-12.6976-28.4672-28.4672-28.4672H597.2992c-15.6672 0-28.4672 12.6976-28.4672 28.4672s12.8 28.4672 28.4672 28.4672z"  horiz-adv-x="1024" />

    
    <glyph glyph-name="icon31" unicode="&#58920;" d="M650.092 220.017v0c89.228 48.863 150.838 144.465 150.838 254.938 0 159.335-129.593 291.054-288.929 291.054s-288.929-129.593-288.929-288.929c0-110.473 61.61-206.075 150.838-254.938v0c-157.212-57.361-267.685-208.199-267.685-382.407 0-16.996 12.747-29.743 29.743-29.743 16.996 0 29.743 12.747 29.743 29.743-2.124 176.332 129.593 322.921 301.676 344.166l-59.485-169.959c-4.249-10.622-2.124-23.369 6.373-33.993l89.228-97.726c4.249-6.373 12.747-6.373 19.12 0l89.228 97.726c8.498 8.498 10.622 21.245 6.373 33.993l-59.485 169.959c169.959-21.245 303.801-167.834 303.801-344.166 0-16.996 12.747-29.743 29.743-29.743 16.996 0 29.743 12.747 29.743 29.743-4.249 174.207-116.846 325.046-271.934 380.282zM280.432 477.079c0 127.469 104.1 231.568 231.568 231.568s231.568-104.1 231.568-231.568c0-127.469-104.1-231.568-231.568-231.568s-231.568 101.975-231.568 231.568z"  horiz-adv-x="1024" />

    
    <glyph glyph-name="log-out" unicode="&#59071;" d="M384-42.666667H213.333333c-72.533333 0-128 55.466667-128 128V682.666667c0 72.533333 55.466667 128 128 128h170.666667c25.6 0 42.666667-17.066667 42.666667-42.666667s-17.066667-42.666667-42.666667-42.666667H213.333333c-25.6 0-42.666667-17.066667-42.666666-42.666666v-597.333334c0-25.6 17.066667-42.666667 42.666666-42.666666h170.666667c25.6 0 42.666667-17.066667 42.666667-42.666667s-17.066667-42.666667-42.666667-42.666667zM682.666667 128c-12.8 0-21.333333 4.266667-29.866667 12.8-17.066667 17.066667-17.066667 42.666667 0 59.733333l183.466667 183.466667-183.466667 183.466667c-17.066667 17.066667-17.066667 42.666667 0 59.733333s42.666667 17.066667 59.733333 0l213.333334-213.333333c17.066667-17.066667 17.066667-42.666667 0-59.733334l-213.333334-213.333333c-8.533333-8.533333-17.066667-12.8-29.866666-12.8zM896 341.333333H384c-25.6 0-42.666667 17.066667-42.666667 42.666667s17.066667 42.666667 42.666667 42.666667h512c25.6 0 42.666667-17.066667 42.666667-42.666667s-17.066667-42.666667-42.666667-42.666667z"  horiz-adv-x="1024" />

    
    <glyph glyph-name="emaxcitygerenxinxitubiaoji04" unicode="&#58906;" d="M864 832h-704c-10.752 0-20.8-5.376-26.688-14.4-5.952-8.96-6.976-20.288-2.688-30.208l90.176-210.304-89.408-178.752c-4.48-9.024-4.48-19.648 0-28.608l89.344-178.752-90.176-210.304c-4.224-9.92-3.2-21.248 2.688-30.272 5.952-9.024 16-14.4 26.752-14.4h704c17.664 0 32 14.336 32 32v832c0 17.664-14.336 32-32 32zM832 0h-623.488l76.864 179.392c3.712 8.704 3.456 18.496-0.768 26.944l-88.832 177.664 88.832 177.664c4.224 8.448 4.48 18.24 0.768 26.944l-76.864 179.392h623.488v-768zM694.656 585.344c12.48 12.48 12.48 32.768 0 45.248s-32.768 12.48-45.248 0l-105.408-105.344-105.344 105.408c-12.48 12.48-32.768 12.48-45.248 0s-12.48-32.768 0-45.248l128-128c6.208-6.272 14.4-9.408 22.592-9.408s16.384 3.136 22.656 9.344l128 128zM416 320c-17.664 0-32-14.336-32-32s14.336-32 32-32h96v-96c0-17.664 14.336-32 32-32s32 14.336 32 32v96h96c17.664 0 32 14.336 32 32s-14.336 32-32 32h-96v64h96c17.664 0 32 14.336 32 32s-14.336 32-32 32h-256c-17.664 0-32-14.336-32-32s14.336-32 32-32h96v-64h-96z"  horiz-adv-x="1024" />

    
    <glyph glyph-name="xiangce" unicode="&#59377;" d="M291.2 724.288c-65.877333 0-119.466667-53.610667-119.466667-119.488s53.589333-119.488 119.466667-119.488 119.488 53.610667 119.488 119.488C410.688 670.698667 357.077333 724.288 291.2 724.288zM855.466667 896 168.533333 896C75.605333 896 0 820.394667 0 727.445333L0 89.6l0-0.021333L0 40.533333C0-52.352 75.605333-128 168.533333-128l686.976 0C948.352-128 1024-52.352 1024 40.533333L1024 727.445333C1024 820.394667 948.394667 896 855.466667 896zM981.269333 263.808l-282.432 282.453333c-8 8-22.165333 8-30.165333 0L389.333333 266.965333l-95.317333 95.296c-8 8.042667-22.186667 8.042667-30.186667 0L42.688 141.098667 42.688 727.445333c0 69.397333 56.448 125.866667 125.845333 125.866667l686.933333 0c69.376 0 125.802667-56.469333 125.802667-125.866667L981.269333 263.808z"  horiz-adv-x="1024" />

    
    <glyph glyph-name="file" unicode="&#58895;" d="M919.897525 537.868413l-99.934037 0 0 70.948889c0 26.119891-21.178345 47.299259-47.300282 47.299259l-72.40403 0 0 94.482885L200.662671 750.599446l0-94.482885-92.149746 0c-26.120914 0-47.299259-21.178345-47.299259-47.299259l0-543.940456c0-26.120914 21.178345-47.300282 47.299259-47.300282l18.291598 0 644.451638 0 1.408069 0c7.438413 0 14.389732 1.86958 20.648272 4.919033 17.923208 7.691169 33.418111 23.696702 38.753629 42.38125l121.620965 425.692309C961.144952 516.690068 946.018439 537.868413 919.897525 537.868413zM650.97368 703.300186l0-165.431773L275.444864 537.868413c-8.66024 0-17.367553-2.494821-25.51921-6.559393L249.925654 703.300186 650.97368 703.300186zM109.851409 123.816213c-0.11461 1.222851-0.391926 2.424212-0.391926 3.695159L109.459482 570.340989c0 21.547759 18.475793 38.984896 41.294498 38.984896l49.90869 0 0-167.671791L109.851409 123.816213zM771.718695 537.868413l-71.458495 0 0 71.456449 30.140461 0c22.840194 0 41.318034-17.437138 41.318034-38.984896L771.718695 537.868413z"  horiz-adv-x="1024" />

    
    <glyph glyph-name="photo" unicode="&#59152;" d="M512 502.153846c-86.646154 0-157.538462-70.892308-157.538462-157.538461s70.892308-157.538462 157.538462-157.538462 157.538462 70.892308 157.538462 157.538462-70.892308 157.538462-157.538462 157.538461z m393.846154 118.153846h-102.4c-27.569231 0-51.2 13.784615-66.953846 35.446154l-45.292308 68.923077C677.415385 758.153846 643.938462 777.846154 608.492308 777.846154h-192.984616c-35.446154 0-68.923077-19.692308-84.676923-53.169231l-45.292307-68.923077c-13.784615-21.661538-39.384615-35.446154-66.953847-35.446154H118.153846c-43.323077 0-78.769231-35.446154-78.769231-78.76923v-472.615385c0-43.323077 35.446154-78.769231 78.769231-78.769231h787.692308c43.323077 0 78.769231 35.446154 78.769231 78.769231V541.538462c0 43.323077-35.446154 78.769231-78.769231 78.76923zM512 108.307692c-129.969231 0-236.307692 106.338462-236.307692 236.307693s106.338462 236.307692 236.307692 236.307692 236.307692-106.338462 236.307692-236.307692-106.338462-236.307692-236.307692-236.307693z"  horiz-adv-x="1024" />

    
    <glyph glyph-name="dingwei" unicode="&#58902;" d="M518.649351 34.244156s316.509091 271.293506 316.509091 553.225974C832.498701 757.693506 691.532468 896 518.649351 896S202.14026 757.693506 202.14026 587.47013c0-292.571429 316.509091-553.225974 316.509091-553.225974zM345.766234 579.490909c0 95.750649 77.132468 172.883117 172.883117 172.883117S691.532468 675.241558 691.532468 579.490909s-77.132468-172.883117-172.883117-172.883117-172.883117 79.792208-172.883117 172.883117zM768.664935 201.807792c-21.277922-26.597403-39.896104-53.194805-61.174026-74.472727 220.758442-13.298701 268.633766-58.514286 279.272727-82.451948-10.638961-26.597403-159.584416-90.431169-454.815584-90.431169-295.231169-2.65974-444.176623 63.833766-452.155844 87.771429 7.979221 21.277922 42.555844 63.833766 244.696104 79.792207-18.618182 21.277922-39.896104 47.875325-61.174026 74.472728C98.41039 177.87013 0 137.974026 0 44.883117c0-135.646753 335.127273-170.223377 534.607792-170.223377 199.480519 0 534.607792 37.236364 534.607792 170.223377 0 98.41039-122.348052 140.966234-300.550649 156.924675z"  horiz-adv-x="1069" />

    
    <glyph glyph-name="sign" unicode="&#59083;" d="M320-32H128c-17.6 0-32 14.4-32 32V192c0 8 3.2 16 9.6 22.4L636.8 745.6c17.6 17.6 41.6 28.8 67.2 28.8s49.6-9.6 67.2-28.8l100.8-100.8c36.8-36.8 36.8-97.6 0-136l-83.2-83.2c-12.8-12.8-32-12.8-44.8 0l-96 96c-12.8 12.8-12.8 32 0 44.8 12.8 12.8 32 12.8 44.8 0l73.6-73.6 60.8 60.8c12.8 12.8 12.8 32 0 44.8l-100.8 100.8c-12.8 12.8-33.6 12.8-44.8 0L160 179.2V32h147.2l342.4 342.4c12.8 12.8 32 12.8 44.8 0s12.8-32 0-44.8l-352-352c-6.4-6.4-14.4-9.6-22.4-9.6z"  horiz-adv-x="1024" />

    
    <glyph glyph-name="scan" unicode="&#58929;" d="M928 352H96c-17.664 0-32 14.336-32 32s14.336 32 32 32h832c17.696 0 32-14.336 32-32s-14.304-32-32-32z m-96-384H640c-17.696 0-32 14.304-32 32s14.304 32 32 32h192c17.664 0 32 14.336 32 32V224c0 17.696 14.304 32 32 32s32-14.304 32-32v-160c0-52.928-43.072-96-96-96z m-480 0H192c-52.928 0-96 43.072-96 96V224c0 17.696 14.336 32 32 32s32-14.304 32-32v-160c0-17.664 14.368-32 32-32h160c17.664 0 32-14.304 32-32s-14.336-32-32-32zM128 512c-17.664 0-32 14.336-32 32V704c0 52.928 43.072 96 96 96h160c17.664 0 32-14.336 32-32s-14.336-32-32-32H192c-17.632 0-32-14.368-32-32v-160c0-17.664-14.336-32-32-32z m768 0c-17.696 0-32 14.336-32 32V704c0 17.632-14.336 32-32 32H640c-17.696 0-32 14.336-32 32s14.304 32 32 32h192c52.928 0 96-43.072 96-96v-160c0-17.664-14.304-32-32-32z"  horiz-adv-x="1024" />

    
    <glyph glyph-name="people" unicode="&#58969;" d="M950.270788 49.948855c0-23.871687-19.35072-43.222407-43.220361-43.222407-23.86964 0-43.220361 19.35072-43.220361 43.222407 0 0.271176 0.074701 0.520863 0.078795 0.792039l-0.26913 0c0.010233 0.9967 0.148379 1.961678 0.148379 2.962471 0 70.560032-27.910677 134.460388-73.056899 181.361581l0.260943 0.26299c-7.692193 7.528464-12.495592 17.998933-12.495592 29.614481 0 22.910802 18.570961 41.479717 41.47767 41.479717 11.617595 0 22.088064-4.800329 29.618575-12.495592l0.076748 0.078795c62.155618-62.318324 100.600209-148.297534 100.600209-243.266489l-0.078795 0C950.195064 50.468694 950.270788 50.220031 950.270788 49.948855zM606.40409 314.210517l0-0.107447c-0.212848 0.002047-0.419556 0.032746-0.63445 0.032746-142.497435 0-258.014378-116.599601-258.014378-260.432451 0-0.705058 0.060375-1.393743 0.105401-2.089591 0.020466-0.564865 0.167822-1.093914 0.167822-1.665942 0-23.871687-19.35072-43.222407-43.220361-43.222407-23.871687 0-43.222407 19.35072-43.222407 43.222407 0 0.271176 0.074701 0.520863 0.078795 0.792039l-0.394996 0c0 139.857305 83.486436 259.990383 203.215308 313.963645-49.822732 40.880059-81.626066 102.910834-81.626066 172.388209 0 123.111922 99.80203 222.909859 222.911906 222.909859S828.681546 660.204669 828.681546 537.092747C828.681546 414.196743 729.21823 314.557418 606.40409 314.210517zM605.76964 679.226908c-78.343299 0-141.850705-63.509453-141.850705-141.854798 0-78.341253 63.507406-141.850705 141.850705-141.850705s141.852752 63.509453 141.852752 141.850705C747.623415 615.717456 684.112939 679.226908 605.76964 679.226908zM342.330716 639.998465c-47.368844-13.066597-82.148975-55.764048-82.148975-106.555851 0-42.546002 24.40483-79.415724 60.170404-97.943706 14.476713-7.499811 28.541033-21.713534 30.846542-46.471404 1.998517-21.466917-4.369517-53.691853-32.766264-61.522192-94.958722-26.178219-165.045987-110.373807-168.481226-211.371058 0.210801-1.627057 0.496304-3.232624 0.496304-4.915963 0-21.160949-17.151635-38.314631-38.314631-38.314631-21.158902 0-38.312584 17.153682-38.312584 38.314631 0 0.372483 0.101307 0.719384 0.11154 1.091868l-0.202615 0.002047c0 128.593773 76.339666 230.92644 183.627181 275.247878-44.402279 33.932834-73.092715 86.830601-73.092715 146.441257 0 74.953086 45.225017 139.378397 110.262266 168.574347 30.41573 13.656021 52.572356-2.650363 57.93448-23.63121C358.886787 653.804912 342.330716 639.998465 342.330716 639.998465z"  horiz-adv-x="1024" />

    
    <glyph glyph-name="auth" unicode="&#58933;" d="M892.372 643.016c-154.789 40.221-246.723 85.059-296.588 115.591-52.629 32.225-70.643 55.658-71.617 56.959L511.902 834l-12.508-18.435c-0.897-1.202-18.848-24.668-71.574-56.964-49.842-30.53-141.745-75.366-296.53-115.586l-11.228-2.917-0.125-11.6c-0.116-10.735-2.17-264.211 56.245-376.504 25.499-49.02 58.673-96.163 98.602-140.125 31.856-35.074 68.064-68.217 107.617-98.506 35.196-26.954 66.6-46.623 86.745-58.378 11.488-6.705 20.637-11.614 26.289-14.554 10.322-5.368 12.152-6.318 15.737-6.409 0.288-0.016 0.568-0.023 0.843-0.023 3.867 0 6.51 1.517 10.247 3.66 1.744 1 4.614 2.663 8.385 4.899 6.554 3.889 17.106 10.275 30.173 18.629 22.987 14.697 58.307 38.42 96.015 67.969 42.508 33.307 79.332 67.084 109.449 100.39 38.116 42.153 65.639 83.792 81.802 123.763 47.049 116.347 55.304 364.064 55.634 374.553l0.378 12.108L892.372 643.016zM802.341 270.997c-25.072-62.001-83.746-130.525-169.68-198.163-54.74-43.086-104.2-73.08-121.323-83.092-15.463 7.957-57.162 30.756-106.273 68.628-55.682 42.941-132.862 114.9-184.343 213.867-45.435 87.342-49.501 282.485-49.798 330.612 223.204 59.446 311.996 129.217 340.852 157.893 28.853-28.648 117.619-98.353 340.493-157.774C850.113 554.408 839.427 362.708 802.341 270.997zM500.381 520.078m-59 0a59 59 0 1 0 118 0 59 59 0 1 0-118 0ZM500.381 520.078m-59 0a59 59 0 1 0 118 0 59 59 0 1 0-118 0ZM528.38 408.518c49.979 12.505 87 57.707 87 111.561 0 63.512-51.488 115-115 115s-115-51.488-115-115c0-53.854 37.021-99.056 87.001-111.561l0-281.773 40.929 0 15.07 0 68.184 0 0 56L528.38 182.745l0 49.079 68.184 0 0 56L528.38 287.824 528.38 408.518zM441.381 520.078c0 32.585 26.415 59 59 59s58.999-26.415 58.999-59-26.414-59.001-58.999-59.001S441.381 487.493 441.381 520.078z"  horiz-adv-x="1024" />

    
    <glyph glyph-name="bangzhu" unicode="&#58919;" d="M529.681067 896C236.771556 896 0 684.828444 0 424.391111 0 273.453511 56.502044 145.385244 162.975289 53.134222 162.975289 53.134222 162.907022 12.288 162.975289-78.324622 162.998044-118.670222 183.614578-128 202.660978-128 219.022222-128 234.222933-121.105067 234.222933-121.105067L392.647111-46.648889C424.322844-51.928178 496.321422-57.594311 529.681067-57.594311 822.226489-57.594311 1018.629689 163.931022 1018.629689 424.391111 1018.629689 684.828444 773.211022 896 529.681067 896M529.681067 827.733333C631.6032 827.733333 737.052444 784.042667 818.9952 707.857067 903.714133 629.100089 950.363022 528.429511 950.363022 424.391111 950.363022 188.529778 769.501867 10.672356 529.681067 10.672356 499.643733 10.672356 431.445333 16.088178 403.8656 20.6848L382.862222 24.1664 363.611022 15.132444 231.2192-47.104C231.173689 21.572267 231.241956 52.952178 231.241956 53.020444L231.287467 84.263822 207.6672 104.743822C116.462933 183.751111 68.266667 294.2976 68.266667 424.391111 68.266667 646.781156 275.2512 827.733333 529.681067 827.733333M341.328782 419.157333C341.328782 380.427378 309.948871 349.047467 271.218916 349.047467 232.48896 349.047467 201.109049 380.427378 201.109049 419.157333 201.109049 457.887289 232.48896 489.2672 271.218916 489.2672 309.948871 489.2672 341.328782 457.887289 341.328782 419.157333M578.896782 419.157333C578.896782 380.427378 547.516871 349.047467 508.786916 349.047467 470.05696 349.047467 438.677049 380.427378 438.677049 419.157333 438.677049 457.887289 470.05696 489.2672 508.786916 489.2672 547.516871 489.2672 578.896782 457.887289 578.896782 419.157333M817.511538 419.157333C817.511538 380.427378 786.131627 349.047467 747.401671 349.047467 708.671716 349.047467 677.291804 380.427378 677.291804 419.157333 677.291804 457.887289 708.671716 489.2672 747.401671 489.2672 786.131627 489.2672 817.511538 457.887289 817.511538 419.157333"  horiz-adv-x="1024" />

    
    <glyph glyph-name="phone" unicode="&#59074;" d="M113.917481 383.881229M627.718496 624.709297M250.037916 795.059241c18.884541 0 36.074552-6.143312 47.473467-21.101253 13.438495-17.64052 47.897355-141.771258 58.96658-182.499368 2.168589-7.981186-0.078839-16.506055-5.896556-22.384181l-70.743309-71.489721c-9.657286-9.758651-12.579455-24.344921-7.390404-37.055434 59.585006-145.938471 182.891516-264.887325 315.272721-313.283312 2.583263-0.944022 5.262771-1.402723 7.920777-1.402723 6.004064 0 11.897547 2.340602 16.316637 6.709521l68.775401 67.987009c4.380181 4.330011 10.25114 6.699282 16.297183 6.698258 1.403747 0 2.817732-0.127986 4.223527-0.388053 42.428784-7.863439 184.5369-35.005615 203.62417-49.186427 17.625162-13.093446 24.845601-45.997024 16.112883-78.566817-8.342618-31.131233-63.439935-131.590766-175.550258-131.590766-5.153215 0-10.431344 0.212968-15.826195 0.653239-122.761803 10.033052-265.55285 94.01827-413.800182 237.880301C167.573168 349.90769 84.981458 537.927848 99.083431 649.058313c12.673653 99.909706 102.325052 137.219063 126.912634 143.030637C234.107284 794.005663 242.21748 795.059241 250.037916 795.059241M250.037916 844.205737c-11.416321 0-23.307726-1.442654-35.345545-4.288032-21.926504-5.182908-56.574784-20.065081-88.068472-46.290879-42.967348-35.780697-69.349801-83.633001-76.294815-138.383221-4.227623-33.318252-1.569616-71.323852 7.902347-112.959125 8.961044-39.389892 23.742877-80.948374 43.935943-123.520502 20.438799-43.08919 45.776889-85.837426 75.311885-127.059049 31.046251-43.330827 66.073368-84.019006 104.109684-120.93212 77.270578-74.984242 153.335018-134.334779 226.082071-176.402131 76.678772-44.341402 150.005343-69.640584 217.942182-75.19209 6.62761-0.541635 13.30027-0.81706 19.829587-0.81706 61.062473 0 116.923609 23.728542 161.545555 68.620794 35.209369 35.422337 55.122914 75.681508 61.477147 99.393668 6.238533 23.267794 7.089382 47.260499 2.460396 69.377446-5.524885 26.393716-18.22823 47.612715-36.737005 61.362471-10.923833 8.115315-27.69405 16.939159-111.771418 35.501176-43.242773 9.546707-88.859936 18.230278-112.203497 22.557218-4.334107 0.80375-8.769578 1.211256-13.179452 1.211256-19.158942 0.001024-37.218232-7.419073-50.848193-20.893404l-56.808229-56.157038c-53.757051 22.237765-106.045851 57.599693-152.090998 102.979314-49.209976 48.498376-89.009423 106.321276-115.536244 167.7503l63.768602 64.441295c18.083863 18.274305 25.130241 45.037644 18.38898 69.843314-5.767546 21.222071-17.206393 62.606492-29.008719 101.341098-22.391348 73.490393-31.192666 88.735022-38.289216 98.049306C316.718448 829.83653 285.976291 844.205737 250.037916 844.205737L250.037916 844.205737z"  horiz-adv-x="1025" />

    
    <glyph glyph-name="sangang1" unicode="&#58892;" d="M51.2 793.6l921.6 0c25.6 0 51.2 25.6 51.2 51.2s-25.6 51.2-51.2 51.2L51.2 896C25.6 896 0 870.4 0 844.8S25.6 793.6 51.2 793.6zM972.8 435.2 51.2 435.2c-25.6 0-51.2-25.6-51.2-51.2s25.6-51.2 51.2-51.2l921.6 0c25.6 0 51.2 25.6 51.2 51.2S998.4 435.2 972.8 435.2zM972.8-25.6 51.2-25.6c-25.6 0-51.2-25.6-51.2-51.2s25.6-51.2 51.2-51.2l921.6 0c25.6 0 51.2 25.6 51.2 51.2S998.4-25.6 972.8-25.6z"  horiz-adv-x="1024" />

    
    <glyph glyph-name="sangang" unicode="&#59197;" d="M139.636364 686.545455l791.272727 0 0-46.545455-791.272727 0 0 46.545455ZM139.636364 453.818182l791.272727 0 0-46.545455-791.272727 0 0 46.545455ZM139.636364 221.090909l791.272727 0 0-46.545455-791.272727 0 0 46.545455Z"  horiz-adv-x="1024" />

    
    <glyph glyph-name="qiankuan" unicode="&#58970;" d="M671.604984 584.569916l-82.771884-201.204209 90.29753 0 0-94.870981L543.68229 288.494727l-17.287928-32.863623 0-29.168267 152.736268 0 0-91.224692L526.394362 135.238144l0-127.732559L390.958289 7.505585 390.958289 135.237122l-156.155622 0 0 91.224692 156.155622 0 0 29.168267-17.28895 32.863623L238.29051 288.493704l-3.488866 94.870981 111.066146 0L234.801644 653.380204 377.145938 653.380204l90.179974-280.961542 93.772085 280.961542 85.070876 0c-27.858793 85.289633-33.575094 145.333289-37.496363 224.651064-35.384439 8.300495-72.199997 12.842256-110.135918 12.842256-272.688647 0-493.762933-228.069396-493.762933-509.438807 0-281.337722 221.075308-509.434718 493.762933-509.434718 224.312706 0 413.550709 154.283922 473.740544 365.565259C841.186555 317.448326 745.79526 403.511786 671.604984 584.569916zM710.842202 870.879757c-10.009661 4.103225-19.02265 7.492935-26.864164 10.230463l-29.347157-36.941293c1.123429-11.067668 2.610772-23.815879 4.846385-38.057566L710.842202 870.879757zM1023.211714 427.361399l-90.044018-113.461228c6.897998-5.780702 14.05053-11.534826 21.327775-17.227617l68.775532 86.631819C1023.76985 398.415977 1023.710561 413.118689 1023.211714 427.361399zM872.658926 369.807891l135.194827 170.330865c-2.741617 11.191357-5.84408 22.01369-9.201079 32.525266l-145.023554-182.679385C859.844269 383.208284 866.189242 376.524954 872.658926 369.807891zM799.897725 454.353342l160.56756 202.385905c-4.728829 8.734942-9.700948 17.192861-14.804935 25.372733L783.230289 477.484328C788.579611 469.772636 794.176312 462.057878 799.897725 454.353342zM739.579089 554.565466l154.717347 194.926704c-6.524884 6.713997-13.056924 13.150969-19.713676 19.337496L726.022295 581.618743C730.311566 572.665043 734.848216 563.646944 739.579089 554.565466zM690.510078 668.990655 810.15681 819.792867c-7.834359 5.254254-15.608407 10.198774-23.19232 14.800846L680.500416 700.457914C683.484301 690.196785 686.842322 679.717921 690.510078 668.990655z"  horiz-adv-x="1024" />

    
    <glyph glyph-name="shouxin" unicode="&#58884;" d="M512-128s-435.2 151.552-435.2 418.816V740.864L512 896l435.2-155.136v-450.048c0-267.264-435.2-418.816-435.2-418.816z m181.248 671.744L476.16 326.656 356.352 445.952 284.16 373.76l119.296-119.296 72.192-72.192 72.192 72.192 217.088 217.088-71.68 72.192z"  horiz-adv-x="1024" />

    
    <glyph glyph-name="fukuansvg" unicode="&#58927;" d="M512.001023 896c-282.770202 0-512-229.232868-512-512.001023s229.231845-511.998977 512-511.998977c282.767132 0 511.998977 229.231845 511.998977 511.998977C1024 666.767132 794.769178 896 512.001023 896L512.001023 896zM730.947618 429.951565l0-73.094762L584.760141 356.856803l0-73.094762 146.189524 0 0-73.094762-146.189524 0 0-118.757754L438.568571 91.909525 438.568571 210.668303l-146.189524 0 0 73.094762 146.189524 0 0 73.094762L292.38007 356.857826l0 73.094762 133.649929 0L292.38007 563.601494l66.825988 66.825988 152.457274-152.460344 152.460344 152.459321 66.824965-66.825988L597.300758 429.951565 730.947618 429.951565 730.947618 429.951565z"  horiz-adv-x="1024" />

    
    <glyph glyph-name="tongji" unicode="&#58900;" d="M533.2-97.4h-42.6c-61.8 0-112 50.2-112 112V753.4c0 61.8 50.2 112 112 112h42.6c61.8 0 112-50.2 112-112v-738.8c0-61.8-50.2-112-112-112zM490.6 801.4c-26.4 0-48-21.6-48-48v-738.8c0-26.4 21.6-48 48-48h42.6c26.4 0 48 21.6 48 48V753.4c0 26.4-21.6 48-48 48h-42.6zM191.6-97.4H157c-61.8 0-112 50.2-112 112v177.6c0 61.8 50.2 112 112 112h34.6c61.8 0 112-50.2 112-112v-177.6c0-61.8-50.2-112-112-112zM157 240.2c-26.4 0-48-21.6-48-48v-177.6c0-26.4 21.6-48 48-48h34.6c26.4 0 48 21.6 48 48v177.6c0 26.4-21.6 48-48 48H157zM867-97.4h-34.6c-61.8 0-112 50.2-112 112V543c0 61.8 50.2 112 112 112h34.6c61.8 0 112-50.2 112-112v-528.6c0-61.6-50.2-111.8-112-111.8z m-34.6 688.4c-26.4 0-48-21.6-48-48v-528.6c0-26.4 21.6-48 48-48h34.6c26.4 0 48 21.6 48 48V543c0 26.4-21.6 48-48 48h-34.6z"  horiz-adv-x="1024" />

    
    <glyph glyph-name="upload" unicode="&#58896;" d="M853.9 351.9H170.1c-17.7 0-32 14.3-32 32s14.3 32 32 32h683.8c17.7 0 32-14.3 32-32s-14.3-32-32-32zM512.1 10.5c-17.7 0-32 14.3-32 32V725.4c0 17.7 14.3 32 32 32s32-14.3 32-32v-682.9c0-17.7-14.3-32-32-32z"  horiz-adv-x="1024" />

    
    <glyph glyph-name="menu" unicode="&#58888;" d="M1024 384c0-41.422-33.578-75-75-75H75c-41.422 0-75 33.578-75 75 0 41.421 33.578 75 75 75h874c41.422 0 75-33.579 75-75zM1024 34c0-41.422-33.578-75-75-75H75c-41.422 0-75 33.578-75 75s33.578 75 75 75h874c41.422 0 75-33.578 75-75zM1024 734c0-41.422-33.578-75-75-75H75c-41.422 0-75 33.578-75 75 0 41.421 33.578 75 75 75h874c41.422 0 75-33.579 75-75z"  horiz-adv-x="1024" />

    
    <glyph glyph-name="guanli" unicode="&#58882;" d="M233.651 589.773c0.327 44.234 13.011 84.73 37.698 121.302 24.001 35.555 55.564 62.677 94.23 81.322 21.2 10.222 43.778 15.94 67.063 18.766 25.806 3.132 50.428-2.489 73.688-12.865 66.661-29.74 110.053-80.824 131.868-149.807 17.064-53.96 10.055-106.044-19.02-154.544-26.572-44.325-63.428-77.887-110.487-99.6-35.082-16.186-71.863-19.734-109.152-9.847-60.963 16.164-109.183 50.157-140.606 105.71-17.394 30.749-25.409 64.192-25.282 99.563zM490.566 330.846c4.955-0.016 9.971-0.613 14.848-1.533 10.868-2.049 15.072-8.202 11.631-18.726-2.984-9.125-6.705-18.224-11.541-26.492-13.875-23.718-26.97-47.741-35.913-73.84-14.307-41.756-19.537-84.542-13.699-128.36 2.262-16.974 6.133-33.731 9.172-50.605 0.674-3.741 1.198-7.549 1.333-11.342 0.35-9.8-4.046-16.15-13.752-18.134-8-1.637-16.264-2.344-24.443-2.668-37.926-1.496-75.684 1.279-113.42 4.753-29.374 2.705-58.802 4.806-88.181 7.46-28.936 2.612-57.821 5.795-86.765 8.318-17.8 1.553-35.038 5.471-51.961 10.9-20.799 6.671-26.933 16.152-21.92 37.47 4.487 19.079 10.516 37.834 16.617 56.485 12.03 36.772 23.349 73.846 37.212 109.931 19.454 50.636 56.703 81.877 110.34 91.888 16.204 3.024 32.928 3.878 49.456 4.414 32.134 1.042 64.298 1.155 96.45 1.653 0.002-0.502 76.359-1.449 114.536-1.572zM645.405-12.862c-8.679-9.208-17.217-18.292-25.785-27.35-7.843-8.29-18.915-10.062-28.725-4.473-1.96 1.117-3.74 2.657-5.357 4.25-10.216 10.062-20.372 20.185-30.529 30.306-6.829 6.804-9.532 14.883-6.14 24.09 1.326 3.598 3.82 7.026 6.53 9.802 8.234 8.437 16.81 16.542 25.318 24.71 1.28 1.228 1.482 2.083 0.714 3.826a1491.957 1491.957 0 0 0-13.835 32.479c-0.84 2.036-1.811 2.738-4.048 2.713-11.622-0.133-23.261 0.297-34.867-0.161-11.946-0.471-20.846 8.438-23.698 17.943-0.96 3.196-1.443 6.647-1.481 9.99-0.159 14.168-0.143 28.338-0.042 42.507 0.073 10.264 4.13 18.536 12.851 24.288 3.297 2.175 6.949 3.027 10.851 3.025 12.219-0.006 24.437 0.061 36.653-0.064 2.078-0.021 2.943 0.696 3.671 2.506 3.825 9.507 7.745 18.976 11.697 28.43 0.878 2.1 2.02 4.091 3.11 6.272-0.5 0.526-0.992 1.09-1.533 1.602-8.454 7.978-16.903 15.961-25.374 23.92-10.5 9.863-10.887 23.967-0.79 34.258a3649.166 3649.166 0 0 0 30.67 30.884c10.098 10.049 23.59 9.916 33.6-0.277a3194.06 3194.06 0 0 0 24.82-25.57c1.223-1.272 2.064-1.51 3.822-0.736 10.766 4.75 21.603 9.343 32.478 13.838 2.02 0.834 2.756 1.786 2.73 4.036-0.136 11.623 0.295 23.261-0.163 34.867-0.47 11.947 8.438 20.846 17.943 23.7 3.196 0.96 6.648 1.444 9.989 1.48 14.252 0.158 28.508 0.172 42.761 0.032 10.162-0.099 18.346-4.204 24.036-12.84 2.172-3.299 3.026-6.948 3.024-10.85-0.006-12.22 0.062-24.438-0.063-36.654-0.022-2.079 0.698-2.938 2.508-3.667 11.613-4.685 23.183-9.477 34.768-14.235l0.32-0.963c0.523 0.77 0.958 1.625 1.587 2.296a7993.69 7993.69 0 0 0 23.916 25.378c7.856 8.298 18.917 10.061 28.726 4.457 1.959-1.12 3.735-2.663 5.353-4.257 10.218-10.06 20.382-20.174 30.535-30.299 6.823-6.804 9.535-14.886 6.12-24.095-1.335-3.596-3.822-7.026-6.532-9.801-8.238-8.434-16.812-16.541-25.33-24.698-1.314-1.258-1.416-2.133-0.668-3.836a1542.6 1542.6 0 0 0 13.821-32.486c0.845-2.05 1.841-2.717 4.061-2.693 11.623 0.128 23.26-0.286 34.868 0.156 11.876 0.453 20.631-8.245 23.62-17.714 1.028-3.256 1.497-6.809 1.538-10.235 0.166-14.167 0.148-28.338 0.043-42.507-0.076-10.265-4.14-18.534-12.865-24.28-3.3-2.173-6.952-3.018-10.855-3.016-12.133 0.007-24.266-0.07-36.398 0.068-2.275 0.025-3.213-0.748-4.012-2.763-3.651-9.211-7.44-18.369-11.258-27.512-0.975-2.334-2.244-4.545-3.69-7.433 0.557-0.365 1.354-0.738 1.963-1.31 8.478-7.952 16.929-15.932 25.389-23.904 9.68-9.121 10.945-22.62 2.021-32.302-10.8-11.719-22.053-23.07-33.71-33.935-9.725-9.063-22.457-8.106-31.832 1.42a2707.371 2707.371 0 0 0-24.988 25.762c-1.256 1.311-2.13 1.422-3.835 0.673a1542.67 1542.67 0 0 0-32.486-13.823c-2.048-0.845-2.72-1.839-2.695-4.059 0.128-11.622-0.287-23.26 0.157-34.867 0.452-11.876-8.241-20.63-17.712-23.622-3.256-1.028-6.809-1.498-10.234-1.538-14.252-0.165-28.508-0.175-42.762-0.034-10.16 0.102-18.342 4.212-24.026 12.853-2.17 3.3-3.018 6.952-3.016 10.853 0.007 12.133-0.07 24.267 0.066 36.398 0.026 2.271-0.742 3.21-2.757 4.015-9.516 3.8-18.977 7.742-28.43 11.697-2.023 0.853-3.93 1.967-6.127 3.079zM834.388 136.4c-0.087 56.673-46.173 102.727-102.85 102.777-56.836 0.05-103.097-46.301-102.968-103.17 0.128-56.743 46.416-102.768 103.234-102.648 56.585 0.119 102.671 46.41 102.584 103.04z"  horiz-adv-x="1024" />

    
    <glyph glyph-name="nav_icon_Familymana" unicode="&#58889;" d="M512 325.973333s0-3.413333 0 0c0-3.413333 0 0 0 0-136.533333-3.413333-249.173333-112.64-249.173333-249.173333 0-13.653333-10.24-27.306667-27.306667-27.306667s-23.893333 13.653333-23.893333 27.306667c0 126.293333 78.506667 235.52 191.146666 279.893333-51.2 34.133333-88.746667 95.573333-88.746666 163.84 0 109.226667 88.746667 194.56 197.973333 194.56 109.226667 0 197.973333-88.746667 197.973333-194.56 0-68.266667-34.133333-126.293333-85.333333-163.84 6.826667-3.413333 13.653333-6.826667 23.893333-10.24 13.653333-6.826667 17.066667-20.48 10.24-34.133333s-20.48-17.066667-34.133333-10.24c-34.133333 13.653333-64.853333 20.48-112.64 23.893333z m0 51.2c78.506667 0 143.36 64.853333 143.36 146.773334 0 78.506667-64.853333 143.36-143.36 143.36-78.506667-3.413333-143.36-68.266667-143.36-146.773334s64.853333-143.36 143.36-143.36z m358.4-177.493333v-40.96c-3.413333-13.653333-13.653333-23.893333-27.306667-27.306667h-3.413333c-3.413333 0-6.826667-3.413333-10.24-6.826666-3.413333-3.413333-3.413333-6.826667-3.413333-10.24v-3.413334c3.413333-13.653333 0-27.306667-10.24-37.546666-3.413333-3.413333-6.826667-6.826667-17.066667-10.24-6.826667-3.413333-13.653333-6.826667-17.066667-10.24-13.653333-3.413333-27.306667 0-37.546666 10.24v3.413333c-3.413333 3.413333-6.826667 3.413333-10.24 3.413333-3.413333 0-10.24 0-10.24-3.413333l-3.413334-3.413333c-10.24-10.24-23.893333-13.653333-37.546666-10.24-3.413333 0-10.24 3.413333-17.066667 10.24-6.826667 3.413333-13.653333 10.24-17.066667 10.24-10.24 10.24-13.653333 23.893333-10.24 37.546666v3.413334c0 3.413333 0 10.24-3.413333 13.653333-3.413333 3.413333-6.826667 6.826667-10.24 6.826667h-3.413333c-13.653333 3.413333-23.893333 13.653333-27.306667 27.306666v6.826667 13.653333 13.653334 6.826666c3.413333 13.653333 13.653333 23.893333 27.306667 27.306667h3.413333c3.413333 0 6.826667 3.413333 10.24 6.826667 3.413333 3.413333 3.413333 6.826667 3.413333 10.24v3.413333c-3.413333 13.653333 0 27.306667 10.24 37.546667 3.413333 3.413333 6.826667 6.826667 17.066667 10.24 6.826667 3.413333 13.653333 6.826667 17.066667 10.24 13.653333 3.413333 27.306667 0 37.546666-10.24v-3.413334c3.413333-3.413333 6.826667-3.413333 10.24-3.413333 3.413333 0 6.826667 0 10.24 3.413333l3.413334 3.413334c10.24 10.24 23.893333 13.653333 37.546666 10.24 3.413333 0 10.24-3.413333 17.066667-10.24 6.826667-3.413333 13.653333-10.24 17.066667-10.24 10.24-10.24 13.653333-23.893333 10.24-37.546667v-3.413333c0-3.413333 0-10.24 3.413333-13.653334l6.826667-6.826666h3.413333c17.066667-3.413333 27.306667-13.653333 30.72-27.306667z m-40.96-10.24c-13.653333 3.413333-27.306667 13.653333-34.133333 27.306667-6.826667 13.653333-10.24 27.306667-6.826667 44.373333 0 0-3.413333 3.413333-6.826667 3.413333-3.413333 3.413333-6.826667 3.413333-6.826666 3.413334-10.24-10.24-23.893333-17.066667-40.96-17.066667-13.653333 0-27.306667 6.826667-40.96 17.066667-3.413333 0-3.413333-3.413333-6.826667-3.413334-3.413333-3.413333-6.826667-3.413333-6.826667-3.413333 3.413333-13.653333 0-30.72-6.826666-44.373333s-20.48-20.48-34.133334-27.306667v-13.653333c13.653333-3.413333 27.306667-13.653333 34.133334-27.306667 6.826667-13.653333 10.24-27.306667 6.826666-44.373333 3.413333 0 3.413333-3.413333 6.826667-3.413334 3.413333-3.413333 6.826667-3.413333 6.826667-3.413333 10.24 10.24 23.893333 17.066667 40.96 17.066667 13.653333 0 27.306667-6.826667 40.96-17.066667 3.413333 0 3.413333 3.413333 6.826666 3.413333 3.413333 3.413333 6.826667 3.413333 6.826667 3.413334-3.413333 13.653333 0 30.72 6.826667 40.96 6.826667 13.653333 20.48 20.48 34.133333 27.306666V179.2v10.24zM733.866667 179.2m-27.306667 0a27.306667 27.306667 0 1 1 54.613333 0 27.306667 27.306667 0 1 1-54.613333 0Z"  horiz-adv-x="1024" />

    
    <glyph glyph-name="update1" unicode="&#58966;" d="M512 896C230.4 896 0 665.6 0 384s230.4-512 512-512c236.817067 0 435.2 166.4 512 384h-128c-76.8-147.217067-217.6-256-384-256-211.217067 0-384 172.817067-384 384C128 595.217067 300.817067 768 512 768c108.817067 0 198.417067-44.817067 256-128l-192-192H1024V896l-128-128C780.8 832 652.8 896 512 896z"  horiz-adv-x="1024" />

    
    <glyph glyph-name="right" unicode="&#58936;" d="M606.4 661.6l412-348.8c8.8-7.2 8-19.2 0-26.4l-411.2-348.8c-8.8-7.2-14.4-4-14.4 7.2L592.8 148 0 148l0 14.4L0 437.6 0 452l592 0L592 654.4C592 665.6 597.6 668.8 606.4 661.6z"  horiz-adv-x="1025" />

    
    <glyph glyph-name="update" unicode="&#59003;" d="M960 437.333333c0-23.466667-19.2-42.666667-42.666667-42.666667l-128 0 0-213.333333c0-23.466667-19.2-42.666667-42.666667-42.666667L277.333333 138.666667c-23.466667 0-42.666667 19.2-42.666667 42.666667l0 213.333333L106.666667 394.666667c-23.466667 0-42.666667 19.2-42.666667 42.666667 0 12.8 4.266667 23.466667 12.8 29.866667l0 0 405.333333 405.333333 0 0c8.533333 8.533333 19.2 12.8 29.866667 12.8s23.466667-4.266667 29.866667-12.8l0 0 405.333333-405.333333 0 0C955.733333 460.8 960 450.133333 960 437.333333zM512 782.933333 209.066667 480 277.333333 480c23.466667 0 42.666667-19.2 42.666667-42.666667l0-213.333333 384 0 0 213.333333c0 23.466667 19.2 42.666667 42.666667 42.666667l68.266667 0L512 782.933333zM277.333333 96l469.333333 0c23.466667 0 42.666667-19.2 42.666667-42.666667 0-23.466667-19.2-42.666667-42.666667-42.666667L277.333333 10.666667c-23.466667 0-42.666667 19.2-42.666667 42.666667C234.666667 76.8 253.866667 96 277.333333 96zM277.333333-32l469.333333 0c23.466667 0 42.666667-19.2 42.666667-42.666667s-19.2-42.666667-42.666667-42.666667L277.333333-117.333333c-23.466667 0-42.666667 19.2-42.666667 42.666667S253.866667-32 277.333333-32z"  horiz-adv-x="1024" />

    
    <glyph glyph-name="yifahuo" unicode="&#58932;" d="M266.89536 756.56192C61.74208 621.70112 4.65408 346.25024 139.51488 141.09696s410.30656-262.23616 615.46496-127.38048c205.15328 134.8608 262.23616 410.31168 127.38048 615.46496C747.49952 834.33472 472.04864 891.4176 266.89536 756.56192m468.13696-712.43264c-188.45184-123.64288-441.46688-71.296-565.10976 116.91008C46.03392 349.4912 98.63168 602.25536 286.83264 726.14912 475.2896 850.03776 728.05376 797.44 851.9424 609.23904c123.64288-188.20608 71.296-441.22112-116.91008-565.10976M301.29152 704.21504c-175.98976-115.66592-225.09568-352.47616-109.42976-528.46592 115.6608-176.24064 352.47616-225.09568 528.46592-109.43488 176.23552 115.91168 225.09568 352.47616 109.43488 528.46592C714.09664 771.0208 477.53216 819.87584 301.29152 704.21504m409.31328-622.6944c-167.76192-110.1824-393.35936-63.5648-503.54176 104.19712-110.17728 167.76192-63.55968 393.35936 104.20224 503.53664 167.76192 110.1824 393.35936 63.5648 503.53664-104.19712 110.1824-168.0128 63.5648-393.35936-104.19712-503.53664M319.24224 395.85792a191.97952 191.97952 0 0 0 86.25152 149.81632c52.84864 34.65216 116.6592 39.8848 171.7504 19.69152l18.944 12.4672c-63.31392 27.91936-138.84416 24.18176-201.1648-16.70144-62.06976-40.8832-95.47264-108.68736-94.97088-177.98144l19.18976 12.70784M702.62784 374.66624a191.97952 191.97952 0 0 0-86.25152-149.81632c-52.84864-34.64704-116.6592-39.8848-171.7504-19.69152l-18.944-12.46208c63.31392-27.91936 138.84416-24.18176 201.1648 16.70144 62.06976 40.8832 95.47264 108.68224 94.976 177.98144l-19.19488-12.71296M323.72736 670.05952l28.66688-22.93248 30.65856 19.9424-12.96384-34.1504 28.416-22.93248-36.39296 1.74592-12.96384-34.1504-9.72288 35.1488-36.64384 1.74592 30.66368 19.9424-9.71776 35.64032M221.02528 564.36736l35.39456-8.72448 19.19488 31.16032 2.74432-36.39296 35.39968-8.4736-33.65376-13.96224 2.74432-36.39296-23.68 27.91936-33.65376-13.95712 19.19488 31.16032-23.68512 27.66336M461.57824 722.41152l16.2048-32.90624 36.1472 5.23264-26.17344-25.42592 16.2048-32.65536-32.4096 16.95232-26.17856-25.42592 6.23104 36.14208-32.40448 16.95232 36.1472 5.23776 6.23104 35.89632M608.90112 711.69024l0.74752-36.39296 35.1488-10.4704-34.65216-12.21632 0.74752-36.39296-22.18496 28.91776-34.64704-11.96544 20.9408 30.16192-22.18496 29.16352 34.89792-10.4704 21.18656 29.66528M172.416 425.02144l35.89632 7.22944 4.23936 36.39296 17.9456-31.90784 35.89632 7.22944-24.92928-26.92096 17.95072-31.90784-33.15712 15.2064-24.92416-26.92096 4.23424 36.39296-33.152 15.2064M698.14272 100.46464l-28.66688 22.93248-30.65856-19.9424 12.96384 34.1504-28.416 22.93248 36.39296-1.74592 12.96384 34.1504 9.72288-35.1488 36.64384-1.74592-30.65856-19.9424 9.71264-35.64032M800.8448 206.1568l-35.39968 8.72448-19.19488-31.16032-2.7392 36.39296-35.39968 8.4736 33.65376 13.95712-2.7392 36.39296 23.68-27.91936 33.65376 13.95712-19.19488-31.16032 23.68-27.65824M560.04096 48.11776l-16.2048 32.90624-36.14208-5.23776 26.17344 25.42592-16.2048 32.65536 32.40448-16.95232 26.17344 25.42592-6.23104-36.14208 32.40448-16.95232-36.1472-5.23264-6.22592-35.89632M412.96896 58.83392l-0.74752 36.39296-35.1488 10.4704 34.64704 12.2112-0.74752 36.39296 22.18496-28.91264 34.64704 11.96544-20.9408-29.91616 22.18496-29.16352-34.89792 10.4704-21.18144-29.91104M849.45408 345.50272l-35.89632-7.22944-4.23936-36.39296-17.9456 31.90784-35.89632-7.22944 24.92416 26.92096-17.9456 31.90784 33.152-15.2064 24.92928 26.92096-4.23936-36.39296 33.15712-15.2064M426.98752 313.1648c10.18368 1.72544 18.80064 3.58912 25.85088 5.59616 4.9408-12.27264 8.54528-21.71904 10.81856-28.33408 2.26816-6.62016 1.87904-12.9024-1.1776-18.83136-3.05664-5.93408-8.72448-11.58144-16.99328-16.95232l-58.85952-38.17472c-19.34848-12.54912-35.58912-8.69888-48.72704 11.55584l-37.64736 58.04544 20.0704 13.02016 8.53504-13.15328 65.6384 42.5728-18.56 28.61056-89.3696-57.96864-12.05248 18.58048 109.57824 71.07584 42.65984-65.77152-85.84704-55.68 15.83616-24.41728c5.92384-9.12896 13.17888-10.91072 21.76512-5.34016l50.5856 32.80896c4.20352 2.72896 7.17824 5.59104 8.92928 8.58624s1.8432 6.38464 0.29696 10.1632c-1.55648 3.78368-5.32992 11.776-11.33056 24.00768zM571.02336 418.35008c0.8448-16.5376-1.36704-32.94208-6.62528-49.19296 13.30176 2.07872 29.43488 7.3984 48.40448 15.97952 0.24064-9.088 0.68096-18.18112 1.31584-27.27424-21.1456-7.80288-40.85248-11.79136-59.1104-11.94496-8.24832-16.39424-19.67104-33.24416-34.26304-50.54464a361.46176 361.46176 0 0 1-21.6576 10.80832c12.34432 14.03392 22.75328 27.79136 31.232 41.25696a143.37536 143.37536 0 0 0-31.62112 9.5488c0.3584-23.53664-2.4576-45.52704-8.45312-65.99168-7.41376 7.2704-14.30016 13.53216-20.6592 18.78016 6.89664 27.98592 7.58784 55.7312 2.07872 83.23584l-34.03776-22.07744-10.55232 16.27136a326.3488 326.3488 0 0 1-8.35072 27.7248l19.90144 10.01984c2.2784-6.49216 4.9408-14.64832 7.9872-24.49408l19.52768 12.66688c-2.90304 9.03168-6.6304 19.33312-11.17696 30.89408l20.72064 11.13088 10.66496-28.91776 37.96992 24.63232a995.18464 995.18464 0 0 1-25.27232 4.79744l4.6336 19.00032c12.48256-1.024 23.31648-2.2784 32.50176-3.76832l-2.91328-14.22336 22.92224 14.86848 10.81856-16.68096-74.99776-48.64512c1.10592-4.67968 2.22208-9.86112 3.34848-15.55968l65.90976 42.752 9.7536-15.0528z m-30.45376-50.76992c5.06368 12.78976 7.81312 24.58624 8.24832 35.4048l-41.22624-26.73664a97.8688 97.8688 0 0 1 32.97792-8.66816zM577.75104 524.0576l21.4016 8.2944a194.35008 194.35008 0 0 0-2.24768-25.34912l24.8064-38.2464-17.08544-11.0848-13.9008 21.43232a256.7168 256.7168 0 0 0-6.7072-19.95264c-4.15744 4.62336-9.43616 10.1888-15.8464 16.69632 5.62176 16.8704 8.81664 32.94208 9.57952 48.20992z m55.64928-116.69504l-29.12256 44.89216 102.79936 66.67776 27.88352-42.99264-18.98496-12.3136-17.3312 26.72128-64.82432-42.04544 18.56-28.61568-18.97984-12.32384z m46.94528 149.52448a166.36928 166.36928 0 0 1 20.77696 4.80256c3.072-6.80448 5.30944-12.544 6.72768-17.20832 1.42336-4.66944 1.09568-9.0368-0.97792-13.11744-2.0736-4.07552-6.01088-7.99232-11.79648-11.74016l-28.07296-18.21184c-12.74368-8.2688-22.7328-7.51616-29.96736 2.23744a757.0944 757.0944 0 0 0-14.05952-16.34304l-16.35328 11.55072a441.76384 441.76384 0 0 1 19.59424 21.4784l-15.70304 24.21248 18.03776 11.6992 11.6992-18.03776c9.1392 12.53888 16.40448 24.704 21.80096 36.48512l20.2752-6.30272c-7.9104-14.63808-18.28352-30.33088-31.12448-47.06816 2.7904-3.90656 6.9888-4.0448 12.5952-0.40448l18.44736 11.96032c2.70848 1.75616 4.45952 3.98336 5.248 6.6816 0.78848 2.688-1.59744 8.46848-7.14752 17.32608z m-19.1232-97.95584l19.79904 12.84096c3.18464-6.79424 5.4016-13.32736 6.63552-19.584 16.13312 5.32992 38.46656 12.04224 66.9952 20.14208l2.03264-23.34208c-28.63104-6.74816-51.42528-12.45184-68.38784-17.09568-1.92-15.95392-16.53248-34.65728-43.85792-56.09984-5.6576 3.77856-12.75392 7.97696-21.2736 12.5952 20.97664 15.5904 34.1504 28.25216 39.53152 37.97504 5.376 9.72288 4.8896 20.57728-1.47456 32.56832z"  horiz-adv-x="1024" />

    
    <glyph glyph-name="yiwancheng" unicode="&#58887;" d="M724.007391 679.434235c97.359987 0 183.71107-47.131866 237.379473-119.721821l37.67109-10.148833c-56.248614 93.231648-158.424996 155.500756-275.050563 155.500756-56.420628 0-109.400974-14.621199-155.500756-40.079287l37.499076-10.148833c36.294977 15.825298 76.202251 24.598018 118.00168 24.598018z m194.031917 16.685369l20.641693-16.685369 6.364522 25.11406 23.049891 13.417101-23.049891 13.4171-6.364522 25.11406-20.641693-16.685368-27.006215 1.892155 10.320846-23.737947-10.320846-23.737948 27.006215 1.892156zM560.421972 752.196204L539.264237 766.989417l-4.644381-26.146145-21.673778-16.169326 23.393919-11.180917 7.740635-24.770032 19.093566 19.26558 26.490173 0.860071-11.69696 22.877876 8.600706 25.286075-26.146145-4.816395z m198.504284 36.122963l-15.653284 20.469679-12.385016-23.565933-25.630103-8.77272 18.921552-17.889467-0.172014-25.974131 24.081976 12.55703 25.458088-7.224593-3.956324 25.458089 15.825298 21.501764-26.490173 3.440282z m287.435578-161.349236l-22.18982 15.48127-3.096254-25.802117-20.985721-15.309255 24.253989-12.040988 9.288762-24.942046 18.233496 18.40551H1078.528473l-13.073072 23.393919 7.224592 24.770032-26.318159-3.956325z m289.15572-194.031917l-1116.371577 299.132539c-27.350244 7.396607-55.560558-8.944734-62.957165-36.294978L76.374265 398.01915c-7.396607-27.350244 8.944734-55.560558 36.294977-62.957164l1116.371578-299.132539c27.350244-7.396607 55.560558 8.944734 62.957164 36.294978l79.814547 297.756425c7.396607 27.350244-8.944734 55.560558-36.294977 62.957164z m8.084663-68.63363l-73.105997-272.814379c-5.504452-20.469679-26.662187-32.682681-47.131866-27.178229l-1091.601545 292.423987c-20.469679 5.504452-32.682681 26.662187-27.17823 47.131867l73.105997 272.986393c5.504452 20.469679 26.662187 32.682681 47.131866 27.17823l1091.601546-292.423988c20.469679-5.676466 32.682681-26.834201 27.178229-47.303881zM724.007391 846.287922c213.985554 0 393.912313-145.351923 446.720645-342.652108l28.382329-7.568621C1148.538216 711.600874 955.022342 872.090039 724.007391 872.090039c-140.019486 0-266.277843-59.00084-355.381152-153.436587l28.382328-7.568621C480.779439 794.511675 596.372921 846.287922 724.007391 846.287922z m118.00168-733.124139c-36.122963-15.653284-76.030237-24.426004-117.829666-24.426004-97.359987 0-183.71107 47.131866-237.379472 119.721821l-37.67109 10.148833c56.248614-93.231648 158.424996-155.500756 275.050562-155.500756 56.420628 0 109.400974 14.621199 155.500756 40.079288l-37.67109 9.976818z m-275.566605-53.324374l-20.469679 16.685368-6.364522-24.942046-22.877877-13.4171 22.877877-13.417101 6.364522-24.942046 20.469679 16.685369 26.834201-2.064169-10.320846 23.737947 10.320846 23.737947-26.834201-2.064169z m157.564925-79.126491L739.660675-39.756761l12.213002 23.393919 25.458088 8.772719-18.749538 17.889468 0.172015 25.974131-23.909962-12.385016-25.286074 7.224592 3.956324-25.458088-15.825298-21.501764 26.318159-3.440282z m-324.76264 161.349236l20.985721-16.857383 4.988409 25.458088 21.845792 13.761129-23.221905 13.589115-7.396606 25.458088-19.265581-17.029397-26.490173 1.892155 11.352931-24.081975-8.944733-24.25399 26.146145 2.06417z m324.76264-220.350076c-213.985554 0-393.912313 145.351923-446.720645 342.652108l-28.382328 7.568621c50.572148-215.53368 244.088023-376.022846 475.102973-376.022846 140.019486 0 266.277843 59.00084 355.381153 153.436587l-28.382329 7.568621c-83.598858-83.426844-199.19234-135.203091-326.998824-135.203091z m185.77524 94.263733l20.985721-14.793214 4.472367 25.974131 21.501764 16.169326-23.221905 11.180917-7.740635 24.770032-18.921552-19.093566-26.318159-0.860071 11.524945-23.04989-8.428691-25.286075 26.146145 4.98841zM330.61112 488.498572l-20.297665-75.514194c-2.752226-10.148833 1.032085-16.685369 11.180918-19.437595l140.707542-37.67109c4.472367-1.204099 9.288762-0.688056 14.105157 1.720141 4.988409 2.92424 12.040988 18.921552 21.501764 47.30388l26.490173-16.857382c-13.417101-35.262893-23.909961-55.216529-31.134554-59.860911-8.428691-4.472367-18.749538-5.332437-30.102469-2.92424l-157.392912 42.143457c-24.426004 6.536536-32.854695 22.361834-25.97413 47.819923l39.219217 146.556022 29.414413-7.912649-9.976819-37.327062 144.663867-38.703175 17.201411 64.505292-185.947253 49.712078 7.568621 28.382328 216.049723-57.796741-32.510667-120.753906-174.766337 46.615824zM843.21317 352.263397l-7.568621-28.554343-76.202251 20.297665-14.965228-56.0766c-2.236183-8.428691 0-13.589115 6.708551-15.48127l34.74685-9.288762c2.752226-0.688056 5.332437 0.688056 7.740635 3.956325 2.064169 3.440282 6.364522 14.621199 12.040988 33.714766l25.630102-16.341341c-9.63279-28.382328-17.717453-44.723669-24.253989-48.679993-5.84848-3.956325-13.761129-4.816395-23.049891-2.408198l-49.540064 13.245087c-20.297665 5.504452-27.522258 19.781623-21.32975 43.003527l16.513355 61.92508-40.423316 10.836889c-8.77272-27.350244-22.705863-47.647909-41.283387-60.548967-17.889467-11.524945-43.51957-17.717453-77.062321-17.889467l-9.804804 31.134554c32.338653-0.516042 55.216529 3.440282 68.63363 11.868973 13.761129 9.63279 23.737947 23.909961 30.102469 43.175542L586.740131 390.278515l7.568621 28.554342 248.904418-66.56946z m7.912649 38.359146l-29.758441 7.912649 10.664875 39.563246-185.603226 49.712078-10.664874-39.563246-29.758442 7.912649 18.233496 68.289602 104.412565-27.866286c-0.688056 8.600706-1.892155 16.513355-3.612296 24.081976l35.262893-3.268268c0.860071-9.116748 1.548127-18.921552 1.720141-29.586427l107.336805-28.726357-18.233496-68.461616z m-38.359147 25.974131l-7.568621-28.382328-161.349235 43.175541 7.568621 28.382329 161.349235-43.175542zM1164.1915 379.957668l-16.513355-9.804804 33.714766-8.944734-7.568621-28.0383-83.254829 22.189821c-6.536536-33.370737-9.976818-59.86091-10.148833-78.610449-0.172014-4.128339 0-8.256677 0-12.385016 16.685369 16.857383 32.166639 37.155048 46.271796 60.720981l23.737947-18.749538c-20.641693-33.026709-43.003528-59.86091-66.913489-80.33059 1.032085-6.364522 2.580212-12.213002 4.128339-17.201411 4.644381-14.277171 9.288762-22.18982 13.417101-23.393919 2.752226-0.688056 9.804804 11.868974 20.813707 38.187133l22.705862-21.501764c-18.061482-38.015118-33.88678-55.216529-47.991936-51.432219-12.385016 3.268268-23.221905 15.309256-32.682681 35.778935-2.580212 6.192508-4.988409 12.901058-6.708551 19.953637-24.081975-15.309256-49.884092-25.11406-77.062321-29.414413l-10.320847 29.414413c29.758441 4.816395 57.108685 15.997312 81.706703 33.542751-1.376113 11.008903-1.892155 22.705863-1.892156 35.090879-0.172014 24.25399 3.440282 54.012431 10.320847 88.587267l-88.243239 23.565933-10.49286-39.391231 69.321686-18.577524c-14.965228-52.464304-26.490173-84.458928-34.918864-96.155888-7.740635-10.664875-19.26558-13.933143-34.574836-10.148833-6.70855 1.892155-14.277171 4.472367-22.533849 7.568621l-1.892155 29.242399c11.180917-3.956325 20.297665-6.880564 28.210314-9.116748 4.644381-0.860071 8.428691 1.032085 11.352931 6.364522 3.440282 6.020494 9.116748 23.737947 17.373425 52.464304l-39.907273 10.664875c-15.48127-52.29229-38.359147-91.339493-68.805644-117.485638l-17.029397 26.146145c24.426004 20.985721 43.175542 54.528473 56.248614 100.284227l25.286074 94.263732 116.625567-31.134554c2.92424 13.245087 6.70855 27.006215 10.492861 41.111373l29.930455-8.084664c-3.78431-14.449185-7.224593-28.0383-10.148833-41.283386l39.907274-10.664875c-4.988409 9.804804-11.69696 20.813707-20.469679 32.166639l23.393919 12.901058c10.664875-13.245087 18.749538-26.146145 25.11406-38.359147z"  horiz-adv-x="1448" />

    
    <glyph glyph-name="liulanjilu" unicode="&#58982;" d="M512 896C229.3 896 0 666.7 0 384s229.2-512 512-512 512 229.2 512 512C1024 666.7 794.7 896 512 896zM512-76.8C257.9-76.8 51.2 129.9 51.2 384S257.9 844.8 512 844.8 972.8 638.1 972.8 384 766.1-76.8 512-76.8zM807.3 348.1 526.9 348.1 526.9 732c0 14.1-11.5 25.6-25.6 25.6s-25.6-11.5-25.6-25.6l0-409.6c0-14.1 11.5-25.6 25.6-25.6l305.9 0c14.1 0 25.6 11.5 25.6 25.6S821.4 348.1 807.3 348.1z"  horiz-adv-x="1024" />

    
    <glyph glyph-name="historyrecord" unicode="&#58883;" d="M132.457711 585.233831c5.094527 15.283582 15.283582 30.567164 20.37811 40.756219 76.41791 122.268657 213.970149 208.875622 366.80597 208.875622 239.442786 0 438.129353-198.686567 438.129353-448.318408s-193.59204-448.318408-438.129353-448.318408c-157.930348 0-295.482587 86.606965-371.900497 208.875622-10.189055 15.283582-15.283582 25.472637-15.283583 25.472636-10.189055 15.283582-25.472637 20.378109-40.756218 15.283583-15.283582-5.094527-20.378109-25.472637-15.283583-40.756219l15.283583-30.567165c86.606965-147.741294 244.537313-244.537313 427.940298-244.537313 275.104478 0 499.263682 229.253731 499.263682 509.452736S799.840796 896 524.736318 896C346.427861 896 188.497512 799.20398 96.79602 656.557214c0-5.094527-5.094527-15.283582-10.189055-25.472637l-20.378109 106.985075c0 15.283582-15.283582 30.567164-35.661692 25.472637-15.283582-5.094527-25.472637-20.378109-25.472637-35.661692l25.472637-157.930348c5.094527-35.661692 35.661692-56.039801 71.323383-50.945274l152.835821 25.472637c15.283582 5.094527 30.567164 20.378109 25.472637 35.661691 0 15.283582-15.283582 25.472637-35.661692 25.472637l-112.079602-20.378109zM524.736318 671.840796c0 15.283582-15.283582 30.567164-30.567164 30.567164-20.378109 0-30.567164-10.189055-30.567164-30.567164V386.547264c0-35.661692 30.567164-66.228856 61.134328-66.228856h280.199005c15.283582 0 30.567164 15.283582 30.567165 30.567164s-15.283582 30.567164-30.567165 30.567164h-249.63184c-15.283582 0-30.567164 15.283582-30.567165 30.567164V671.840796z"  horiz-adv-x="1024" />

    
    <glyph glyph-name="triangledown" unicode="&#58996;" d="M512 812M512 172 256 428 768 428Z"  horiz-adv-x="1024" />

    
    <glyph glyph-name="weibiaoti1" unicode="&#58901;" d="M960 683.99l-896 0c-35.2 0-64-28.8-64-64l0-672c0-35.2 28.8-64 64-64l896 0c35.2 0 64 28.8 64 64l0 672C1024 655.19 995.2 683.99 960 683.99zM960-20.01c0-17.6-14.4-32-32-32l-832 0c-17.6 0-32 14.4-32 32l0 608c0 17.6 14.4 32 32 32l832 0c17.6 0 32-14.4 32-32L960-20.01zM960 617.78 536.117 258.54c-12.445-12.445-32.81-12.445-45.255 0L64 619.99l0-88.395 404.235-340.938c24.891-24.891 65.619-24.891 90.509 0L960 529.413 960 617.78z"  horiz-adv-x="1025" />

    
    <glyph glyph-name="loading" unicode="&#58899;" d="M843.307 153.76c0-3.217 2.607-5.824 5.824-5.824s5.824 2.607 5.824 5.824c0 0 0 0 0 0 0 3.217-2.607 5.824-5.824 5.824-3.217 0-5.824-2.607-5.824-5.824 0 0 0 0 0 0zM714.731 21.088c0 0 0 0 0 0 0-6.398 5.186-11.584 11.584-11.584 6.398 0 11.584 5.186 11.584 11.584 0 0 0 0 0 0 0 0 0 0 0 0 0 6.398-5.186 11.584-11.584 11.584-6.398 0-11.584-5.186-11.584-11.584s0 0 0 0zM541.419-47.2c0-9.614 7.794-17.408 17.408-17.408s17.408 7.794 17.408 17.408c0 9.614-7.794 17.408-17.408 17.408-9.614 0-17.408-7.794-17.408-17.408zM354.859-38.048c0 0 0 0 0 0 0-12.795 10.373-23.168 23.168-23.168 12.795 0 23.168 10.373 23.168 23.168 0 0 0 0 0 0 0 0 0 0 0 0 0 12.795-10.373 23.168-23.168 23.168-12.795 0-23.168-10.373-23.168-23.168s0 0 0 0zM189.355 46.88c0-16.012 12.98-28.992 28.992-28.992s28.992 12.98 28.992 28.992c0 0 0 0 0 0 0 16.012-12.98 28.992-28.992 28.992-16.012 0-28.992-12.98-28.992-28.992 0 0 0 0 0 0zM74.731 191.264c0-19.228 15.588-34.816 34.816-34.816s34.816 15.588 34.816 34.816c0 19.228-15.588 34.816-34.816 34.816-19.228 0-34.816-15.588-34.816-34.816zM31.723 368.544c0-22.41 18.166-40.576 40.576-40.576s40.576 18.166 40.576 40.576c0 22.41-18.166 40.576-40.576 40.576-22.41 0-40.576-18.166-40.576-40.576zM67.115 544.672c0-25.626 20.774-46.4 46.4-46.4s46.4 20.774 46.4 46.4c0 25.626-20.774 46.4-46.4 46.4-25.626 0-46.4-20.774-46.4-46.4zM173.291 686.688c0-28.843 23.381-52.224 52.224-52.224s52.224 23.381 52.224 52.224c0 0 0 0 0 0 0 28.843-23.381 52.224-52.224 52.224-28.843 0-52.224-23.381-52.224-52.224 0 0 0 0 0 0zM329.195 768.032c0-32.024 25.96-57.984 57.984-57.984s57.984 25.96 57.984 57.984c0 32.024-25.96 57.984-57.984 57.984-32.024 0-57.984-25.96-57.984-57.984zM504.299 773.088c0-35.24 28.568-63.808 63.808-63.808s63.808 28.568 63.808 63.808c0 0 0 0 0 0 0 35.24-28.568 63.808-63.808 63.808-35.24 0-63.808-28.568-63.808-63.808 0 0 0 0 0 0zM664.619 700.96c0-38.421 31.147-69.568 69.568-69.568s69.568 31.147 69.568 69.568c0 38.421-31.147 69.568-69.568 69.568-38.421 0-69.568-31.147-69.568-69.568zM778.539 565.472c0-41.638 33.754-75.392 75.392-75.392s75.392 33.754 75.392 75.392c0 41.638-33.754 75.392-75.392 75.392-41.638 0-75.392-33.754-75.392-75.392zM823.851 389.984c0-44.854 36.362-81.216 81.216-81.216s81.216 36.362 81.216 81.216c0 44.854-36.362 81.216-81.216 81.216-44.854 0-81.216-36.362-81.216-81.216z"  horiz-adv-x="1024" />

    
    <glyph glyph-name="vip" unicode="&#58898;" d="M-218.232 183.6928M927.6064 890.3152 96.3936 890.3152c-50.0976 0-90.7088-40.6128-90.7088-90.7088l0-831.2128c0-50.1008 40.6128-90.7088 90.7088-90.7088l831.2128 0c50.0976 0 90.7088 40.6096 90.7088 90.7088L1018.3152 799.6064C1018.3152 849.7024 977.7024 890.3152 927.6064 890.3152zM607.76 15.3152l-65.9168 0L541.8432 330.3824l65.9168 0L607.76 15.3152 607.76 15.3152 607.76 15.3152zM892.9504 168.5888c-17.5744-26.312-44.9728-39.4608-82.176-39.4608L735.2 129.128l0-113.8128-65.92 0L669.28 330.3824l144.1344 0c30.4656 0 54.4176-8.992 71.8448-26.9584 17.4272-17.9792 26.1488-42.6144 26.1488-73.8896C911.408 207.32 905.2528 187.0016 892.9504 168.5888L892.9504 168.5888 892.9504 168.5888zM174.032 15.3152l0 675.92L112.592 691.2352 112.592 752.6848l245.7808 0 0-307.2368L667.7008 752.6848 911.408 752.6848 174.032 15.3152 174.032 15.3152 174.032 15.3152zM831.8704 265.8416c-9.088 6.6992-23.8848 10.0512-44.3856 10.0512L735.2 275.8928l0-92.2752 61.072 0c21.0912 0 35.4448 6.4128 43.064 19.2448 4.1024 6.9856 6.1552 16.9056 6.1552 29.7376C845.4912 248.0448 840.9456 259.1264 831.8704 265.8416L831.8704 265.8416 831.8704 265.8416zM831.8704 265.8416"  horiz-adv-x="1024" />

    
    <glyph glyph-name="arrow" unicode="&#58960;" d="M651.469 423.203c21.715-0 39.318-17.603 39.318-39.318 0 0 0 0 0 0l-0-57.011 217.559 217.231-217.559 217.559v-57.666c-0-21.715-17.603-39.318-39.318-39.318h-279.157c-21.805 0-39.482 17.677-39.482 39.482 0 21.805 17.677 39.482 39.482 39.482h239.839v112.711c-0 0.029-0 0.063-0 0.097 0 21.715 17.603 39.318 39.318 39.318 10.881 0 20.73-4.42 27.849-11.563l312.578-312.578c7.163-7.172 11.592-17.076 11.592-28.014s-4.43-20.842-11.593-28.014l-312.576-312.576c-7.12-7.144-16.969-11.564-27.85-11.564-21.715 0-39.318 17.603-39.318 39.318 0 0.034 0 0.068 0 0.102l-0 113.689h-239.839c-21.715-0-39.318 17.603-39.318 39.318l0 57.339-217.559-217.559 217.559-217.559v57.666c0 21.715 17.603 39.318 39.318 39.318 0 0 0 0 0 0h279.157c0.002 0 0.004 0 0.006 0 21.715 0 39.318-17.603 39.318-39.318 0-21.715-17.603-39.318-39.318-39.318-0.002 0-0.004 0-0.007 0l-239.839-0v-113.039c0-0.029 0-0.063 0-0.097 0-21.715-17.603-39.318-39.318-39.318-10.881 0-20.73 4.42-27.849 11.563l-311.923 311.923c-7.163 7.172-11.592 17.076-11.592 28.014s4.43 20.842 11.593 28.014l312.576 312.576c7.124 6.893 16.843 11.141 27.555 11.141 0.104 0 0.208-0 0.311-0.001 21.699 0 39.302-17.603 39.302-39.318l-0-113.039h239.839z"  horiz-adv-x="1024" />

    
    <glyph glyph-name="seal" unicode="&#59156;" d="M879.641 1.234H133.737c-10.124 0-18.193-10.94-18.193-24.632V-48c0-13.66 8.069-24.631 18.193-24.631h743.878c10.095 0 18.194 10.971 18.194 24.631v24.602c0.001 13.692-8.099 24.632-16.168 24.632m17.408 82.268v56.456c0 31.613-7.012 38.383-39.562 38.383h-116.54c-9.127 1.028-18.678 6.892-26.838 13.449a13.997 13.997 0 0 1-0.695 0.454c-3.445 2.508-7.888 6.86-12.482 11.847-2.236 2.327-4.382 4.745-6.498 7.224v0.03c-3.656 4.231-7.192 8.522-10.698 12.845-69.393 82.78-24.42 140.113 24.843 218.391 9.309 11.273 18.617 22.577 25.6 36.117 20.944 36.146 32.58 76.796 32.58 121.949 0 140.023-116.328 255.203-262.94 255.203-144.254 0-262.909-112.943-262.909-255.203 0-58.723 20.944-112.913 55.853-155.829 55.821-85.804 146.581-155.8 0-266.477H157.13c-25.568 0-39.531-13.54-39.531-38.383v-58.724c0-22.576 16.29-18.043 41.858-18.043h716.647c23.272 2.237 20.945-4.533 20.945 20.311"  horiz-adv-x="1024" />

    
    <glyph glyph-name="handshake" unicode="&#58944;" d="M847.921493 332.8c-9.659733 0.6144-19.387733 0.887467-29.0816 1.877333a19.524267 19.524267 0 0 0-10.274133 3.925334 173760.4096 173760.4096 0 0 0-275.8656 247.842133c-3.072 2.7648-5.563733 3.3792-9.591467 2.321067-33.0752-8.669867-65.9456-18.363733-99.396266-25.088-35.771733-7.236267-70.587733-2.696533-101.922134 17.954133-17.134933 11.298133-29.354667 26.9312-37.853866 45.431467-6.075733 13.4144 2.628267 31.163733 17.92 35.601066 59.050667 17.169067 116.1216 39.765333 173.602133 61.269334a133.2224 133.2224 0 0 0 55.7056 8.874666c7.236267-0.477867 14.472533-3.242667 21.367467-5.802666 56.32-20.753067 112.5376-41.7792 168.823466-62.498134 2.9696-1.058133 6.826667-1.194667 9.898667-0.341333 41.984 11.400533 83.933867 23.04 125.883733 34.781867 4.061867 1.1264 6.417067 0.6144 9.079467-2.8672 18.773333-24.712533 33.553067-51.848533 47.650133-79.36 35.669333-69.495467 66.184533-141.312 95.505067-213.674667 1.3312-3.3792 0.7168-5.256533-1.570133-7.748267-28.4672-30.3104-63.658667-48.401067-104.004267-56.388266-18.3296-3.618133-37.0688-4.846933-55.637333-7.168l-0.238934 1.058133zM845.63456 327.953067l-0.4096 1.570133-6.2464 0.3072c-6.826667 0.375467-13.653333 0.750933-20.48 1.4336a22.801067 22.801067 0 0 0-12.1856 4.778667 145750.971733 145750.971733 0 0 0-275.899733 247.876266c-2.833067 2.56-3.8912 2.218667-6.4512 1.536-8.4992-2.218667-16.964267-4.5056-25.429334-6.792533-24.1664-6.5536-49.186133-13.312-74.171733-18.363733-38.570667-7.7824-74.1376-1.536-104.482133 18.500266-16.657067 10.990933-29.7984 26.760533-39.048534 46.830934a28.091733 28.091733 0 0 0 0.546134 23.176533 31.061333 31.061333 0 0 0 19.524266 17.134933c49.186133 14.267733 97.826133 32.699733 144.896 50.4832l28.4672 10.683734a135.543467 135.543467 0 0 0 57.105067 9.079466c7.509333-0.477867 14.711467-3.1744 21.674667-5.7344 27.306667-10.069333 53.930667-19.933867 80.554666-29.832533 29.627733-10.990933 59.255467-21.981867 88.917334-32.904533a14.779733 14.779733 0 0 1 7.816533-0.273067c42.018133 11.434667 83.933867 23.04 125.883733 34.781867 7.304533 2.048 10.683733-1.467733 12.6976-4.096 19.114667-25.156267 34.338133-53.248 47.991467-79.872 37.5808-73.216 69.4272-149.230933 95.6416-213.947734 1.7408-4.4032 1.092267-7.68-2.218667-11.298133-27.9552-29.7984-63.556267-49.083733-105.847466-57.480533-12.629333-2.491733-25.565867-3.8912-38.058667-5.188267-5.9392-0.6144-11.912533-1.262933-17.8176-2.048l-2.9696-0.341333z m-319.214933 264.669866a12.288 12.288 0 0 0 8.567466-3.618133c91.8528-82.705067 183.808-165.376 275.8656-247.876267a15.872 15.872 0 0 1 8.362667-3.072c6.690133-0.682667 13.4144-1.024 20.138667-1.399466l11.400533-0.648534 0.1024-0.546133 14.813867 1.6384c12.356267 1.3312 25.156267 2.6624 37.444266 5.12 40.8576 8.0896 75.264 26.692267 102.1952 55.3984 1.501867 1.672533 1.6384 2.184533 0.887467 4.130133-26.146133 64.580267-57.890133 140.3904-95.368533 213.367467-13.5168 26.350933-28.5696 54.135467-47.342934 78.848-1.570133 2.116267-2.389333 2.116267-3.037866 2.116267a7.304533 7.304533 0 0 1-2.389334-0.443734c-41.949867-11.707733-83.899733-23.3472-125.883733-34.781866a21.265067 21.265067 0 0 0-11.946667 0.443733c-29.696 10.922667-59.323733 21.9136-88.951466 32.904533-26.624 9.898667-53.248 19.797333-79.906134 29.5936-7.168 2.6624-13.892267 5.154133-20.411733 5.632a130.525867 130.525867 0 0 1-54.272-8.669866l-28.433067-10.717867c-47.172267-17.851733-95.9488-36.283733-145.408-50.653867a24.405333 24.405333 0 0 1-15.223466-13.448533 20.992 20.992 0 0 1-0.580267-17.442133c8.704-18.944 21.026133-33.723733 36.625067-44.032 28.808533-18.978133 62.532267-24.917333 99.362133-17.442134 24.7808 4.983467 49.664 11.707733 73.728 18.193067l25.4976 6.8608a17.476267 17.476267 0 0 0 4.164267 0.546133zM181.502293 412.501333c27.682133 14.882133 54.203733 4.3008 68.573867-11.332266 17.169067-18.6368 18.807467-41.472 4.7104-67.447467 26.180267 3.822933 47.342933-4.4032 60.552533-27.477333 13.5168-23.4496 9.284267-45.602133-10.376533-66.013867a56.661333 56.661333 0 0 0 34.952533-3.584c26.760533-11.9808 39.492267-43.52 27.682134-69.188267a50.653867 50.653867 0 0 0-8.021334-12.0832c-15.121067-16.896-30.4128-33.826133-46.011733-50.3808-18.8416-20.104533-51.848533-21.333333-71.236267-1.570133-40.721067 41.506133-76.834133 86.903467-112.298666 132.778667-22.9376 29.696-45.636267 59.562667-68.4032 89.3952-10.24 13.448533-18.670933 27.716267-19.490134 45.1584-0.580267 11.3664 2.7648 21.504 10.786134 29.9008 12.322133 13.038933 24.541867 26.043733 36.898133 38.980266 23.1424 24.200533 65.4336 18.5344 84.036267-11.3664 3.003733-4.8128 4.983467-10.24 7.645866-15.7696zM276.768427 85.8112a51.2 51.2 0 0 0-36.898134 15.189333c-42.0864 42.9056-78.677333 89.258667-112.571733 133.12-17.578667 22.7328-34.986667 45.568-52.4288 68.437334l-16.008533 20.957866c-9.454933 12.424533-19.2512 27.716267-20.206934 47.069867a42.2912 42.2912 0 0 0 11.741867 32.4608l11.434667 12.0832c8.4992 8.977067 16.930133 17.92 25.463466 26.862933a53.0432 53.0432 0 0 0 38.775467 16.1792 59.972267 59.972267 0 0 0 56.0128-38.843733l0.955733-2.184533a59.528533 59.528533 0 0 0 69.495467-13.6192c16.7936-18.2272 19.524267-40.8576 8.055467-65.672534 26.077867 1.979733 45.226667-8.192 57.6512-29.9008 12.629333-21.9136 10.9568-43.1104-4.881067-63.214933a58.368 58.368 0 0 0 58.436267-37.4784 53.248 53.248 0 0 0-1.160534-41.233067 52.292267 52.292267 0 0 0-8.567466-12.9024c-14.5408-16.247467-30.208-33.621333-46.08-50.449066a53.623467 53.623467 0 0 0-39.2192-16.861867zM126.103893 451.345067c-13.141333 0-25.156267-4.983467-33.826133-14.062934-8.533333-8.9088-16.964267-17.851733-25.429333-26.8288l-11.434667-12.117333a35.4304 35.4304 0 0 1-9.864533-27.409067c0.8192-17.442133 9.966933-31.6416 18.807466-43.246933l16.008534-20.992c17.408-22.8352 34.850133-45.6704 52.394666-68.4032 33.757867-43.656533 70.212267-89.838933 112.0256-132.471467 8.328533-8.533333 19.694933-13.2096 32.017067-13.2096 13.038933 0 25.565867 5.358933 34.304 14.711467 15.803733 16.7936 31.402667 34.0992 45.943467 50.312533 3.208533 3.618133 5.802667 7.509333 7.4752 11.195734 5.154133 11.229867 5.5296 24.029867 0.989866 36.010666a51.131733 51.131733 0 0 1-26.965333 28.672c-10.24 4.608-20.548267 5.666133-32.938667 3.3792l-10.478933-1.9456 7.406933 7.645867c18.909867 19.626667 22.2208 40.482133 9.864534 61.952-12.014933 20.8896-31.470933 29.559467-57.105067 25.8048l-6.7584-0.955733 3.242667 6.007466c13.346133 24.576 11.946667 45.943467-4.232534 63.488a53.794133 53.794133 0 0 1-38.8096 17.373867 53.930667 53.930667 0 0 1-25.634133-6.7584l-3.140267-1.672533-1.536 3.208533a133.461333 133.461333 0 0 0-2.525866 5.563733 53.1456 53.1456 0 0 1-49.800534 34.747734zM505.325227 99.1232c-1.1264 0.8192-2.8672 1.7408-4.1984 3.106133-31.505067 31.402667-62.941867 62.8736-94.4128 94.3104a17.646933 17.646933 0 0 0-5.051734 18.090667 17.066667 17.066667 0 0 0 13.585067 12.9024c7.031467 1.536 12.834133-0.887467 17.885867-5.973333 25.7024-25.838933 51.575467-51.643733 77.380266-77.4144 15.086933-15.121067 30.5152-29.934933 45.192534-45.4656 8.260267-8.669867 18.158933-11.844267 29.3888-11.9808 22.254933-0.3072 42.939733 14.199467 51.336533 35.328 1.399467 3.515733 0.989867 5.768533-1.809067 8.533333-58.333867 58.1632-116.5312 116.4288-174.7968 174.592-5.358933 5.358933-8.669867 11.264-6.826666 19.080533a18.0224 18.0224 0 0 0 28.296533 10.717867c2.013867-1.4336 3.652267-3.242667 5.393067-4.949333 59.733333-59.6992 119.466667-119.3984 179.063466-179.2a13.687467 13.687467 0 0 1 11.946667-4.5056 56.149333 56.149333 0 0 1 50.517333 45.294933c0.7168 3.754667-0.989867 5.7344-3.2768 8.021333-67.106133 67.072-134.178133 134.144-201.3184 201.181867-5.154133 5.154133-7.953067 10.9568-6.519466 18.193067 1.399467 6.826667 5.5296 11.605333 12.288 13.653333a17.1008 17.1008 0 0 0 17.885866-4.061867c5.188267-5.0176 10.308267-10.274133 15.4624-15.428266l142.267734-142.267734c14.882133-14.882133 29.9008-29.559467 44.714666-44.509866 2.491733-2.628267 4.9152-3.208533 8.226134-2.628267 32.9728 5.5296 53.4528 41.847467 40.925866 72.772267-0.512 1.2288-0.989867 2.56-1.604266 3.959466l49.698133-4.4032c0.3072-8.123733 1.570133-16.930133 0.8192-25.565866a100.078933 100.078933 0 0 0-71.236267-89.053867c-3.037867-0.989867-4.539733-2.321067-5.3248-5.358933a100.829867 100.829867 0 0 0-90.350933-75.127467c-2.798933-0.238933-4.471467-0.955733-5.905067-3.720533-27.170133-54.408533-93.627733-71.7824-141.4144-41.0624-0.580267 0.375467-1.194667 0.648533-2.116266 1.058133a103.424 103.424 0 0 0-31.5392-22.596267 94.481067 94.481067 0 0 0-107.2128 19.319467l-40.277334 40.2432 31.607467 34.542933c2.184533-2.8672 3.8912-5.7344 6.212267-8.0896 11.5712-11.741867 23.210667-23.483733 34.986666-34.986666 23.04-22.698667 62.6688-17.3056 79.0528 10.6496 0.375467 0.580267 0.477867 1.1264 1.058134 2.798933zM459.825493 22.562133a97.6896 97.6896 0 0 0-69.461333 29.149867l-42.5984 42.530133 36.5568 39.901867 2.4576-3.208533c0.785067-1.024 1.501867-2.048 2.184533-3.072 1.194667-1.6384 2.3552-3.310933 3.720534-4.744534 11.537067-11.6736 23.176533-23.415467 34.952533-34.884266 8.6016-8.4992 20.206933-13.175467 32.597333-13.175467 16.861867 0 32.4608 8.669867 40.891734 22.698667a16.964267 16.964267 0 0 0-2.525867 2.082133c-20.206933 20.1728-40.482133 40.379733-60.689067 60.654933l-33.655466 33.621334a21.0944 21.0944 0 0 0-5.9392 21.367466 20.753067 20.753067 0 0 0 16.145066 15.428267c7.7824 1.706667 14.848-0.682667 21.060267-6.929067 19.933867-20.036267 40.004267-40.072533 60.040533-60.074666l17.3056-17.3056 13.585067-13.5168c10.478933-10.410667 21.333333-21.128533 31.675733-32.017067 6.929067-7.304533 15.530667-10.786133 26.965334-10.922667a52.224 52.224 0 0 1 48.128 33.1776c0.9216 2.286933 0.7168 3.072-1.058134 4.881067l-111.854933 111.684267-62.941867 62.907733c-4.5056 4.5056-10.205867 11.741867-7.748266 22.289067a21.538133 21.538133 0 0 0 33.621333 12.6976c1.774933-1.262933 3.3792-2.833067 4.949333-4.4032l12.0832-12.0832c56.0128-55.978667 111.991467-111.9232 167.8336-167.970134a10.3424 10.3424 0 0 1 9.250134-3.515733 52.6336 52.6336 0 0 1 47.445333 42.496c0.375467 1.9456-0.136533 2.7648-2.321067 4.983467l-50.414933 50.3808a209536.853333 209536.853333 0 0 1-150.9376 150.801066c-6.5536 6.587733-9.0112 13.5168-7.4752 21.2992a20.48 20.48 0 0 0 14.677333 16.247467 20.5824 20.5824 0 0 0 21.265067-4.881067c3.4816-3.345067 6.929067-6.826667 10.376533-10.308266l5.12-5.154134 142.267734-142.267733c6.109867-6.109867 12.253867-12.219733 18.397866-18.261333 8.8064-8.772267 17.6128-17.442133 26.3168-26.248534 2.048-2.1504 3.345067-2.013867 5.2224-1.672533a49.834667 49.834667 0 0 1 35.2256 25.258667 49.493333 49.493333 0 0 1 3.140267 42.871466l-3.822933 9.181867 58.368-5.188267 0.1024-2.9696c0.068267-2.56 0.273067-5.188267 0.477866-7.7824a103.560533 103.560533 0 0 0-73.284266-110.216533c-2.1504-0.7168-2.594133-1.3312-3.037867-2.9696a104.0384 104.0384 0 0 0-93.3888-77.687467c-1.9456-0.170667-2.389333-0.4096-3.140267-1.877333a103.424 103.424 0 0 0-92.7744-58.026667 98.4064 98.4064 0 0 0-53.111466 15.394134 104.174933 104.174933 0 0 0-30.788267-21.469867 98.0992 98.0992 0 0 0-41.437867-9.181867z m-102.6048 71.8848l37.956267-37.922133a90.897067 90.897067 0 0 1 103.355733-18.6368c11.1616 5.051733 21.128533 12.219733 30.5152 21.845333l1.672534 1.774934 2.184533-1.024c1.365333-0.6144 1.979733-0.9216 2.594133-1.3312a91.818667 91.818667 0 0 1 49.7664-14.5408c36.7616 0 69.973333 20.7872 86.698667 54.272 2.321067 4.471467 5.5296 5.3248 8.669867 5.597866a97.28 97.28 0 0 1 87.3472 72.635734c1.058133 4.027733 3.345067 6.314667 7.5776 7.714133a96.904533 96.904533 0 0 1 68.881066 86.050133c0.477867 5.666133 0.034133 11.502933-0.341333 17.169067l-0.341333 4.983467-41.198934 3.6864c5.802667-15.325867 4.369067-32.597333-3.9936-47.547734-8.635733-15.394133-23.210667-25.9072-40.004266-28.706133a11.605333 11.605333 0 0 0-11.264 3.618133 2701.824 2701.824 0 0 1-26.2144 26.112 9332.053333 9332.053333 0 0 0-18.432 18.363734c-47.445333 47.377067-94.856533 94.8224-142.267734 142.267733l-5.154133 5.154133c-3.413333 3.447467-6.826667 6.894933-10.274133 10.171734a13.755733 13.755733 0 0 1-14.5408 3.2768 13.6192 13.6192 0 0 1-9.9328-11.0592c-1.092267-5.461333 0.648533-10.1376 5.597866-15.086934 50.346667-50.244267 100.625067-100.522667 150.903467-150.801066l50.414933-50.3808c2.116267-2.116267 5.3248-5.358933 4.1984-11.093334a59.562667 59.562667 0 0 0-53.623466-48.059733 17.3056 17.3056 0 0 0-14.609067 5.495467 129779.165867 129779.165867 0 0 1-167.8336 167.970133l-12.117333 12.0832c-1.297067 1.3312-2.56 2.628267-4.061867 3.6864a14.711467 14.711467 0 0 1-23.005867-8.704c-1.3312-5.666133 0.443733-10.478933 5.905067-15.906133l62.941867-62.907734a172529.322667 172529.322667 0 0 1 111.854933-111.684266c3.720533-3.720533 4.5056-7.406933 2.56-12.219734-8.9088-22.391467-30.549333-37.4784-53.828267-37.4784-13.960533 0.170667-24.3712 4.437333-32.5632 13.038934-10.274133 10.820267-21.0944 21.504-31.5392 31.880533a2542.4896 2542.4896 0 0 0-13.6192 13.5168l-17.3056 17.3056a19961.856 19961.856 0 0 0-60.074666 60.142933c-4.608 4.608-9.352533 6.212267-14.7456 5.0176a13.789867 13.789867 0 0 1-11.025067-10.478933 14.336 14.336 0 0 1 4.1984-14.813867l33.655467-33.6896 60.7232-60.6208c0.682667-0.7168 1.570133-1.297067 2.4576-1.8432a30.037333 30.037333 0 0 0 1.365333-0.955733l2.013867-1.4336-1.2288-3.6864c-0.238933-0.785067-0.4096-1.365333-0.785067-1.979733-9.557333-16.349867-27.613867-26.487467-47.0016-26.487467-14.199467 0-27.477333 5.393067-37.376 15.121067a2603.485867 2603.485867 0 0 0-35.0208 34.986666 39.936 39.936 0 0 0-4.061867 5.12l-26.624-28.9792zM426.033493 744.789333c-17.8176-6.3488-35.1232-11.502933-51.6096-18.568533-13.0048-5.597867-24.541867-4.676267-37.717333-0.238933-56.490667 19.012267-79.428267 25.9072-136.123733 44.407466-27.613867 8.9088-45.192533 6.280533-56.490667-3.345066-31.982933-25.668267-43.1104-44.714667-62.327467-80.930134-22.254933-42.0864-32.187733-87.1424-33.28-134.656-0.6144-27.477333 6.4512-51.3024 25.326934-71.441066 0.9216-1.024-18.807467-24.200533-29.354667-36.113067-6.7584 8.9088-13.380267 17.237333-19.626667 25.9072-14.677333 20.411733-20.548267 43.349333-21.265066 68.369067-1.706667 57.002667 8.6016 111.274667 34.338133 162.235733 26.692267 52.9408 54.135467 81.442133 73.045333 102.673067 40.686933 35.4304 82.295467 17.373867 85.538134 16.349866 74.888533-24.2688 113.425067-36.693333 188.347733-60.928l37.5808-12.288c0.9216-0.273067 1.809067-0.682667 3.618133-1.4336zM44.286293 438.545067l-8.8064 11.502933c-4.573867 5.973333-9.079467 11.776-13.380266 17.749333-13.9264 19.387733-21.0944 42.359467-21.9136 70.280534-1.809067 60.484267 9.557333 114.039467 34.7136 163.874133 24.712533 49.015467 50.176 77.346133 68.744533 98.030933l4.8128 5.358934c17.6128 15.36 37.102933 22.9376 58.2656 22.9376 10.205867 0 20.3776-1.774933 30.173867-5.393067 46.830933-15.223467 79.1552-25.668267 114.688-37.137067l74.308266-24.029866c12.526933-4.061867 25.088-8.157867 37.5808-12.288a19.456 19.456 0 0 0 2.423467-0.9216l9.8304-3.925334-8.4992-3.037866c-5.666133-2.013867-11.229867-3.8912-16.759467-5.768534-12.0832-4.096-23.483733-7.918933-34.645333-12.765866-12.6976-5.4272-24.234667-5.666133-40.174933-0.3072-36.352 12.253867-59.050667 19.5584-85.333334 27.989333-14.677333 4.7104-30.583467 9.8304-50.7904 16.418133-24.337067 7.8848-41.847467 7.031467-53.213866-2.6624-31.8464-25.6-42.973867-44.9536-61.508267-79.906133-20.992-39.697067-31.744-83.217067-32.8704-133.12-0.6144-28.2624 7.3728-50.858667 24.405333-69.051733 2.1504-2.423467 3.4816-3.857067-29.320533-40.686934l-2.730667-3.140266z m122.368 382.976c-19.456 0-37.4784-7.0656-53.486933-20.992l-4.5056-5.085867c-18.295467-20.3776-43.383467-48.3328-67.6864-96.5632C16.331093 650.103467 5.23776 597.572267 6.97856 538.282667c0.750933-26.487467 7.509333-48.264533 20.616533-66.491734 4.266667-5.905067 8.704-11.6736 13.243734-17.544533l3.7888-4.983467c10.103467 11.4688 21.674667 25.2928 25.053866 30.139734-17.2032 19.217067-25.258667 42.871467-24.644266 72.0896 1.160533 50.9952 12.151467 95.5392 33.655466 136.157866 18.944 35.771733 30.378667 55.637333 63.1808 82.0224 13.1072 11.127467 33.006933 12.526933 59.6992 3.925334 20.206933-6.587733 36.113067-11.707733 50.756267-16.418134 26.350933-8.3968 49.0496-15.701333 85.469867-28.023466 14.267733-4.7104 24.1664-4.608 35.293866 0.2048 11.400533 4.9152 22.9376 8.772267 35.157334 12.9024l7.4752 2.56-31.982934 10.4448-74.308266 24.029866-114.005334 36.898134-0.955733 0.3072a79.940267 79.940267 0 0 1-27.818667 5.0176z"  horiz-adv-x="1027" />

    
    <glyph glyph-name="ERP_shenqingren" unicode="&#58971;" d="M516.608 375.808c-120.32 0-218.112 97.792-218.112 218.112s97.792 218.112 218.112 218.112 218.112-97.792 218.112-218.112-98.304-218.112-218.112-218.112z m0 381.44C426.496 757.248 353.28 684.032 353.28 593.92s73.216-163.328 163.328-163.328 163.328 73.216 163.328 163.328-73.216 163.328-163.328 163.328zM819.2-33.792H213.504c-50.688 0-92.16 41.472-92.16 92.16 0 160.256 129.024 289.28 287.232 289.28h215.552c158.72 0 286.72-128.512 287.232-287.232 0-52.736-41.472-94.208-92.16-94.208z m-410.624 327.168c-128.512 0-232.448-104.448-232.448-232.448 0-22.528 16.896-39.936 37.888-39.936H819.2c20.992 0 37.888 16.896 37.888 37.888 0 130.56-104.448 234.496-232.448 234.496H408.576z"  horiz-adv-x="1024" />

    
    <glyph glyph-name="stop" unicode="&#58924;" d="M512 896C228.266667 896 0 667.733333 0 384c0-283.733333 228.266667-512 512-512s512 228.266667 512 512C1024 667.733333 795.733333 896 512 896zM512-55.466667C268.8-55.466667 72.533333 140.8 72.533333 384 72.533333 627.2 268.8 823.466667 512 823.466667S951.466667 627.2 951.466667 384C951.466667 140.8 755.2-55.466667 512-55.466667zM437.333333 554.666667l-21.333333 0c-17.066667 0-32-14.933333-32-32l0-277.333333c0-17.066667 14.933333-32 32-32l21.333333 0c17.066667 0 32 14.933333 32 32l0 277.333333C469.333333 539.733333 454.4 554.666667 437.333333 554.666667zM608 554.666667l-21.333333 0c-17.066667 0-32-14.933333-32-32l0-277.333333c0-17.066667 14.933333-32 32-32l21.333333 0c17.066667 0 32 14.933333 32 32l0 277.333333C640 539.733333 625.066667 554.666667 608 554.666667z"  horiz-adv-x="1024" />

    
    <glyph glyph-name="------" unicode="&#59013;" d="M0.512 384.192C0.512 665.664 230.784 895.936 512.256 895.936c281.536 0 511.808-230.272 511.808-511.744 0-281.536-230.272-511.808-511.808-511.808-281.472 0-511.744 230.272-511.744 511.808z m51.136 0a458.752 458.752 0 0 1 460.608-460.672 458.752 458.752 0 0 1 460.672 460.672A458.752 458.752 0 0 1 512.256 844.8 458.688 458.688 0 0 1 51.648 384.192z m754.944 31.936c31.936-25.6 12.8-51.136-6.4-63.936-6.4-6.4-396.672-230.336-396.672-230.336-25.6-12.8-57.6-12.8-70.336 19.2-6.4 0-6.4 467.008-6.4 467.008 0 25.6 12.736 57.6 51.136 44.8 6.4 0 428.672-236.736 428.672-236.736z"  horiz-adv-x="1088" />

    
    <glyph glyph-name="search" unicode="&#58881;" d="M173.0138 640.8469c57.5463 65.4416 141.5648 106.8386 228.5544 112.2539 81.4181 6.0939 164.835-18.8452 229.213-69.1301 78.1382-59.1929 128.0364-154.2514 131.3953-252.3189 4.656-84.9654-25.4258-170.7682-80.7975-235.1805 86.2121-86.2655 172.5211-172.4761 258.7132-258.7626-18.767-18.7093-37.4571-37.4956-56.2252-56.1839-87.0865 87.043-174.0941 174.1439-261.2206 261.1479-71.9662-52.6933-165.6295-74.3896-253.5105-59.1529-86.9496 13.9146-167.1265 64.2384-218.229 135.8719-32.2944 44.6377-53.334 97.406-60.3985 152.0589C77 467.5554 107.7624 568.9407 173.0138 640.8469zM392.387 712.5573c-13.8392-2.0766-27.7933-3.6875-41.2237-7.7038-85.8433-21.1157-160.159-83.5114-196.6847-163.9169-20.8447-44.7926-29.9279-94.9416-26.5311-144.2192 5.2007-95.2124 60.4575-185.6911 142.1664-234.5969 84.3103-52.6163 195.7723-57.8748 284.7596-13.7217 85.5715 40.5015 148.7652 124.5765 163.8077 218.0622 7.2774 42.737 5.2407 87.1599-6.4259 128.9456-24.0657 90.4197-93.9352 166.9448-181.6033 199.4907C486.8479 711.8198 439.0064 717.331 392.387 712.5573z"  horiz-adv-x="1000" />

    
    <glyph glyph-name="verified-" unicode="&#59070;" d="M512.027648 832.46592c-35.590144-27.429888-70.023168-49.893376-103.298048-67.390464s-73.972736-31.939584-122.092544-43.33056c-48.119808-11.389952-100.786176-17.076224-158.000128-17.057792v-331.741184c0-30.921728 7.291904-66.082816 21.874688-105.48224 14.583808-39.399424 34.86208-78.201856 60.83584-116.406272 25.97376-38.204416 55.001088-73.505792 87.08096-105.903104 32.079872-32.397312 67.091456-58.660864 105.034752-78.789632 37.943296-20.128768 74.27072-30.193664 108.98432-30.193664s70.89152 10.064896 108.535808 30.193664c37.644288 20.129792 72.506368 46.39232 104.58624 78.789632 32.079872 32.397312 61.106176 67.698688 87.08096 105.903104 25.97376 38.204416 46.252032 77.006848 60.83584 116.406272s21.874688 74.560512 21.874688 105.48224V704.688128c-84.027392 0-155.21792 10.79296-213.57056 32.37888s-114.95936 53.385216-169.82016 95.398912h0.057344z m225.83808-329.976832h-7.002112c-18.09408 0-32.098304-2.044928-42.013696-6.13376-9.336832-4.668416-16.627712-13.126656-21.874688-25.376768L523.42784 103.358464h-23.640064l-1.764352 3.501056-147.9168 364.988416c-6.423552 14.004224-13.135872 22.762496-20.139008 26.272768-2.333696 1.176576-5.256192 2.054144-8.766464 2.632704-3.510272 0.57856-7.739392 1.017856-12.688384 1.316864-4.947968 0.299008-10.05568 0.448512-15.321088 0.448512h-7.002112v35.011584h184.692736v-35.011584h-6.13376c-21.58592 0-35.879936-1.456128-42.882048-4.369408-2.91328-1.755136-4.808704-3.800064-5.686272-6.13376-0.877568-2.333696-0.439296-7.291904 1.316864-14.872576l109.40416-268.720128 101.533696 267.851776c3.510272 7.580672 2.054144 13.416448-4.369408 17.50528-7.580672 5.844992-22.463488 8.766464-44.6464 8.766464h-6.13376v35.011584h164.553728v-35.011584l0.026624-0.057344z"  horiz-adv-x="1024" />

    
    <glyph glyph-name="verified" unicode="&#59437;" d="M157.307694 740.125746H64.725935V831.543347H332.274337v-457.303022L746.600797 831.543347h213.209784L157.307694-63.542323v803.668069z"  horiz-adv-x="1024" />

    
    <glyph glyph-name="38xinzeng" unicode="&#58904;" d="M1024 186.222222 625.777778 186.222222 625.777778-212 398.222222-212 398.222222 186.222222 0 186.222222 0 413.777778 398.222222 413.777778 398.222222 812 625.777778 810.179556 625.777778 413.777778 1024 413.777778Z"  horiz-adv-x="1024" />

    
    <glyph glyph-name="quanxing" unicode="&#59122;" d="M1038.099692 440.871385l-193.772307-163.052308a50.254769 50.254769 0 0 1-14.966154-44.977231l45.764923-261.907692c3.623385-20.716308 0-35.603692-17.329231-48.049231a57.107692 57.107692 0 0 0-59.392-4.174769L553.747692 48.206769a52.617846 52.617846 0 0 1-48.128 0L270.966154-81.289846a57.265231 57.265231 0 0 0-59.392 4.174769c-17.329231 12.445538-31.192615 27.254154-27.569231 48.049231L240.246154 238.276923a50.254769 50.254769 0 0 1-14.887385 44.977231L21.267692 440.871385a54.587077 54.587077 0 0 0-14.336 56.713846 56.162462 56.162462 0 0 0 45.528616 37.651692L317.833846 580.923077c16.935385 2.441846 31.507692 12.839385 38.990769 27.884308L479.074462 862.050462A56.398769 56.398769 0 0 0 529.644308 892.849231c21.504 0 40.96-11.972923 50.569846-30.798769l117.366154-253.243077c7.561846-14.966154 22.134154-25.442462 38.990769-27.805539l270.336-45.686154c21.267692-3.150769 38.833231-17.723077 45.449846-37.730461a54.744615 54.744615 0 0 0-14.257231-56.713846z"  horiz-adv-x="1102" />

    
    <glyph glyph-name="banxing" unicode="&#59123;" d="M986.190011 500.735516l-3.465844-3.150766a19.377216 19.377216 0 0 1-4.883688-20.00737c2.363075-6.931687 7.955686-11.657837 12.603067-12.28799l-268.445332 45.449811a126.818364 126.818364 0 0 0-95.704542 70.025792L509.872839 831.802339c3.150767-6.222764 9.215993-9.924915 15.675064-9.924916s12.603067 3.702151 16.226449 11.027684L418.973216 578.638226a124.849135 124.849135 0 0 0-92.632544-67.583948l-267.578871-46.079965a18.116909 18.116909 0 0 1 14.414758 12.603067c2.363075 7.089225 0.315077 14.966142-10.791376 25.127366L272.46256 339.888871c29.932285-28.750747 43.795659-70.419638 36.233818-113.821451l-55.689803-264.900719c2.914459 16.699064-2.83569 25.442442-2.441845 25.206134-5.277534 3.702151-11.972914 4.174766-19.455985 0.315077l236.307511 130.441746a127.133441 127.133441 0 0 0 116.893448-0.393846l244.02689-129.10267a17.014141 17.014141 0 0 1-17.723064-1.339076c-8.50707-6.065226-13.390759-20.716292-12.603067-25.048596L752.245575 223.23173c-7.089225 40.881199 6.61661 82.55009 40.172277 114.451604l193.772159 163.052182z m-146.038042-219.765984a50.254731 50.254731 0 0 1-14.887373-44.977197l45.764888-261.90749c3.623382-20.795061 0-35.682434-17.329218-48.049194a57.107648 57.107648 0 0 0-59.391954-4.174766l-244.735812 129.417746a52.617806 52.617806 0 0 1-48.127963 0l-234.495819-129.417746a57.265187 57.265187 0 0 0-59.391955 4.174766c-17.329217 12.36676-31.192591 27.254133-27.569209 48.049194l56.083649 267.342563a50.254731 50.254731 0 0 1-14.887373 44.898427L17.09291 444.100483a54.587035 54.587035 0 0 0-14.335989 56.713803 56.162418 56.162418 0 0 0 45.52858 37.651663l265.452104 45.686119c16.935372 2.441844 31.507668 12.839375 38.990739 27.884286L474.978096 865.121698A56.398726 56.398726 0 0 0 525.547903 895.999212c21.503983 0 40.959968-11.972914 50.569808-30.877514l117.366063-253.164113c7.56184-14.966142 22.134137-25.442442 38.990739-27.805517l270.335793-45.764888c21.267676-2.993228 38.833201-17.644294 45.449811-37.651664a54.744573 54.744573 0 0 0-14.25722-56.713802l-193.772159-163.052182z m-311.138222-223.940751a52.617806 52.617806 0 0 1-27.56921-5.75015l-234.495819-129.496515a57.265187 57.265187 0 0 0-59.391955 4.253535c-17.329217 12.36676-31.192591 27.175364-27.569209 48.049194l56.083649 267.263794a50.254731 50.254731 0 0 1-14.887373 44.977196L17.09291 443.942945a54.587035 54.587035 0 0 0-14.335989 56.713802 56.162418 56.162418 0 0 0 45.52858 37.651664l265.452104 45.764887c16.935372 2.363075 31.507668 12.839375 38.990739 27.805517L474.978096 865.121698C484.430397 884.026298 507.509763 895.999212 528.934978 895.999212v-838.970431z"  horiz-adv-x="1102" />

    
    <glyph glyph-name="star" unicode="&#58897;" d="M569.498552 717.408645l110.452601-223.834928 273.26778-40.687678c49.603745-7.397481 65.189721-42.312688 28.735461-80.583317l-199.268416-195.119933 48.854685-284.620339c6.563486-41.200354-33.247218-65.146743-68.225871-41.200354l-249.727645 130.273019L259.392772-151.953416c-34.038234-17.381879-69.038376-6.200212-62.688761 41.458227l47.764863 287.656489L39.10667 376.600609c-39.661302 36.582173-19.049868 69.979818 26.982538 76.094072l281.199427 40.85857c0 0 57.706283 117.0386 110.324688 223.64357C495.927953 788.778112 537.940812 787.730247 569.498552 717.408645z"  horiz-adv-x="1024" />

    
    <glyph glyph-name="correct" unicode="&#58886;" d="M512 773.542994c-212.347293 0-384.487861-172.141592-384.487861-384.487861s172.141592-384.487861 384.487861-384.487861 384.487861 172.141592 384.487861 384.487861S724.347293 773.542994 512 773.542994zM752.417605 434.186006 517.346775 200.32677c-2.018983-2.00875-4.139274-3.852748-6.327102-5.566786-27.409257-22.496363-67.928089-21.347191-94.007047 3.916193l-136.539746 132.268466c-28.054963 27.177989-28.766161 71.952752-1.589195 100.007715s71.952752 28.766161 100.007715 1.589195l86.954421-84.234473 186.964182 186.001251c27.647687 27.505447 72.359005 27.389814 99.864452-0.257873C780.180925 506.402771 780.065292 461.691453 752.417605 434.186006z"  horiz-adv-x="1024" />

    
    <glyph glyph-name="jinakangbaoicons18" unicode="&#58991;" d="M512.183-116.324c-272.613 0-494.382 221.828-494.382 494.445s221.766 494.382 494.382 494.382 494.382-221.766 494.382-494.382-221.766-494.445-494.382-494.445zM512.183 810.116c-238.21 0-432.059-193.785-432.059-432.059s193.851-432.127 432.059-432.127 432.059 193.851 432.059 432.127-193.785 432.059-432.059 432.059zM737.623 190.112l-187.989 187.932 187.989 187.932-37.442 37.442-187.932-187.932-187.932 187.932-37.442-37.442 187.932-187.932-187.989-187.989 37.442-37.442 187.989 187.989 187.932-187.932z"  horiz-adv-x="1024" />

    
    <glyph glyph-name="icon-guanbi" unicode="&#58880;" d="M985.716 867.322c20.115-20.102 15.597-57.231-10.091-82.932l-831.573-831.573c-25.698-25.687-62.828-30.227-82.932-10.114v0c-20.102 20.102-15.584 57.266 10.102 82.932l831.573 831.584c25.676 25.698 62.805 30.218 82.921 10.102v0zM985.74-57.287c-20.102-20.115-57.245-15.597-82.942 10.114l-831.573 831.573c-25.687 25.687-30.218 62.828-10.102 82.932v0c20.115 20.102 57.257 15.584 82.932-10.102l831.595-831.584c25.687-25.676 30.206-62.828 10.091-82.932v0z"  horiz-adv-x="1024" />

    
    <glyph glyph-name="square" unicode="&#58995;" d="M97.968363 453.273294l338.765856 311.706543c41.53297 38.281923 108.970963 38.281923 150.609333 0l338.765856-311.706543c41.53297-38.228711 41.53297-100.265688 0-138.547611l-338.765856-311.705519c-41.637348-38.281923-109.076363-38.281923-150.609333 0l-338.765856 311.705519C56.331016 353.007606 56.331016 415.044583 97.968363 453.273294z"  horiz-adv-x="1024" />

    
    <glyph glyph-name="link" unicode="&#59073;" d="M301.184 832l457.28-448-457.28-448-35.584 34.752 421.888 413.248-421.888 413.184 35.584 34.816zM301.184 832z"  horiz-adv-x="1024" />

    
    <glyph glyph-name="back" unicode="&#58985;" d="M253.002342 246.042155l457.242779-441.255269c25.580016-22.382514 63.950039-22.382514 86.332553 0 22.382514 25.580016 22.382514 60.752537-3.197502 86.332553L358.519906 309.992194l415.675254 399.687744c25.580016 22.382514 25.580016 60.752537 0 83.135051s-63.950039 22.382514-86.332553 0L230.619828 351.559719c-25.580016-22.382514-25.580016-60.752537 0-83.135051"  horiz-adv-x="1024" />

    


  </font>
</defs>
</svg>
